<svg xmlns="http://www.w3.org/2000/svg" viewBox="0 0 3545.7 1429.0" width="3546" height="1429"><path fill="currentColor" transform="translate(120.00 1352.45) scale(1.00000 -1.00000)" d="M1864.4210815429688 1153.53173828125H1616.0V0H1864.4210815429688ZM1539.6346435546875 1089.1140747070312H2058.403076171875L2044.1029052734375 1275.9005126953125H1525.33447265625ZM677.600341796875 1275.9005126953125 691.9005126953125 1089.1140747070312H1963.5694580078125L1949.6526489257812 1275.9005126953125ZM1268.3198852539062 1126.2478637695312H1004.9656982421875Q1052.4322509765625 1094.0145874023438 1073.132080078125 1046.8066101074219Q1093.8319091796875 999.5986328125 1093.8319091796875 933.0325927734375V923.4159545898438Q1093.8319091796875 866.4828491210938 1072.4403991699219 829.0913391113281Q1051.0488891601562 791.6998291015625 1001.1908264160156 773.466552734375Q951.332763671875 755.2332763671875 866.6998291015625 755.2332763671875H818.2332763671875L896.6346435546875 581.3310546875L987.9022216796875 583.7144165039062Q1178.336181640625 587.4811401367188 1264.4862670898438 663.5896301269531Q1350.6363525390625 739.6981201171875 1350.6363525390625 890.2315673828125V903.6149291992188Q1350.6363525390625 978.0814819335938 1331.403076171875 1032.89794921875Q1312.1697998046875 1087.7144165039062 1268.3198852539062 1126.2478637695312ZM808.3164672851562 599.332763671875V587.6492309570312Q808.3164672851562 382.44854736328125 925.5831909179688 271.9566955566406Q1042.8499145507812 161.46484375 1252.9168090820312 161.46484375Q1411.2169799804688 161.46484375 1492.6419372558594 215.10678100585938Q1574.06689453125 268.74871826171875 1604.0 358.28216552734375H1629.3670654296875L1621.7667236328125 544.0Q1600.600341796875 462.65093994140625 1527.8426208496094 416.75128173828125Q1455.0848999023438 370.85162353515625 1317.7521362304688 370.85162353515625Q1224.269287109375 370.85162353515625 1164.9446716308594 397.367919921875Q1105.6200561523438 423.88421630859375 1077.3786315917969 471.68353271484375Q1049.13720703125 519.4828491210938 1049.13720703125 582.2152709960938V698.3490600585938L818.2332763671875 755.2332763671875Q813.0831909179688 709.0162963867188 810.6998291015625 672.1745300292969Q808.3164672851562 635.332763671875 808.3164672851562 599.332763671875ZM-29.15008544921875 1089.1140747070312H918.931396484375L904.39794921875 1275.9005126953125H-43.45025634765625ZM91.198974609375 527.2984619140625Q91.198974609375 330.931396484375 199.19082641601562 233.01458740234375Q307.18267822265625 135.0977783203125 510.94940185546875 135.0977783203125Q607.5497436523438 135.0977783203125 677.5081481933594 158.24786376953125Q747.466552734375 181.39794921875 793.3915100097656 226.6981201171875Q839.3164672851562 271.998291015625 862.6998291015625 337.68182373046875H885.1663818359375L832.399658203125 492.399658203125Q812.466552734375 420.75042724609375 750.0171508789062 382.4258117675781Q687.5677490234375 344.1011962890625 578.3850708007812 344.1011962890625Q458.5025634765625 344.1011962890625 403.1363525390625 389.5921936035156Q347.7701416015625 435.08319091796875 347.7701416015625 534.5986328125V544.2152709960938Q347.7701416015625 638.6475219726562 401.9446716308594 683.9052429199219Q456.11920166015625 729.1629638671875 566.3850708007812 729.1629638671875Q610.867919921875 729.1629638671875 650.1174926757812 725.0047302246094Q689.3670654296875 720.8464965820312 725.0 712.1466674804688L707.93310546875 909.6998291015625Q664.399658203125 921.3164672851562 614.899658203125 927.43310546875Q565.399658203125 933.5497436523438 509.0994873046875 933.5497436523438Q303.0325927734375 933.5497436523438 197.11578369140625 836.0578918457031Q91.198974609375 738.5660400390625 91.198974609375 544.3653564453125ZM3155.13720703125 1153.53173828125H2906.7161254882812V0.0H3155.13720703125ZM2830.3507690429688 1089.1140747070312H3349.1192016601562L3335.202392578125 1275.9005126953125H2816.4339599609375ZM1968.6998291015625 1275.9005126953125 1982.6166381835938 1089.1140747070312H3254.6689453125L3240.3687744140625 1275.9005126953125ZM2559.4193725585938 1126.2478637695312H2295.6818237304688Q2343.53173828125 1094.0145874023438 2364.0398864746094 1046.8066101074219Q2384.5480346679688 999.5986328125 2384.5480346679688 933.0325927734375V923.4159545898438Q2384.5480346679688 866.4828491210938 2363.156524658203 829.0913391113281Q2341.7650146484375 791.6998291015625 2292.0986328125 773.466552734375Q2242.4322509765625 755.2332763671875 2157.4159545898438 755.2332763671875H2108.9494018554688L2187.3507690429688 581.3310546875L2278.6183471679688 583.7144165039062Q2469.0523071289062 587.4811401367188 2555.394073486328 663.5896301269531Q2641.73583984375 739.6981201171875 2641.73583984375 890.2315673828125V903.6149291992188Q2641.73583984375 978.0814819335938 2622.3108825683594 1032.89794921875Q2602.8859252929688 1087.7144165039062 2559.4193725585938 1126.2478637695312ZM2099.4159545898438 599.332763671875V587.6492309570312Q2099.4159545898438 382.44854736328125 2216.6826782226562 271.9566955566406Q2333.9494018554688 161.46484375 2544.0162963867188 161.46484375Q2702.3164672851562 161.46484375 2783.5497436523438 215.10678100585938Q2864.7830200195312 268.74871826171875 2894.7161254882812 358.28216552734375H2920.0831909179688L2912.8662109375 544.0Q2891.6998291015625 462.65093994140625 2818.942108154297 416.75128173828125Q2746.1843872070312 370.85162353515625 2608.46826171875 370.85162353515625Q2515.3687744140625 370.85162353515625 2456.044158935547 397.367919921875Q2396.7195434570312 423.88421630859375 2368.2864379882812 471.68353271484375Q2339.8533325195312 519.4828491210938 2339.8533325195312 582.2152709960938V698.3490600585938L2108.9494018554688 755.2332763671875Q2104.1826782226562 709.0162963867188 2101.79931640625 672.1745300292969Q2099.4159545898438 635.332763671875 2099.4159545898438 599.332763671875Z"/></svg>