<svg xmlns="http://www.w3.org/2000/svg" viewBox="0 0 4166.8 1510.7" width="4167" height="1511"><path fill="currentColor" transform="translate(53.90 1085.76) scale(1.00000 -1.00000)" d="M527.33447265625 169.5694580078125 737.998291015625 980.6835327148438H1001.9528198242188L721.7212524414062 0.0H308.41424560546875L27.0325927734375 980.6835327148438H292.52056884765625L503.95111083984375 169.5694580078125ZM1667.1029052734375 212.48626708984375 1530.1337890625 153.3018798828125 1775.2315673828125 980.6835327148438H2037.9528198242188L1617.1046142578125 -344.0H1359.6835327148438L1513.9168090820312 137.61834716796875L1632.5857543945312 41.7667236328125H1346.797607421875L1062.0325927734375 980.6835327148438H1326.7538452148438L1530.1174926757812 212.48626708984375ZM2711.2152709960938 0.0 2719.9819946289062 239.667236328125 2712.9819946289062 261.61663818359375V568.8499145507812L2712.4485473632812 612.8662109375Q2712.4485473632812 708.998291015625 2659.9322509765625 754.1393737792969Q2607.4159545898438 799.2804565429688 2488.0831909179688 799.2804565429688Q2387.3833618164062 799.2804565429688 2298.808319091797 772.5806274414062Q2210.2332763671875 745.8807983398438 2135.0162963867188 710.9476928710938L2157.2332763671875 915.20068359375Q2201.06689453125 937.8173217773438 2257.7504272460938 958.4755554199219Q2314.4339599609375 979.1337890625 2383.9674072265625 991.9837036132812Q2453.5008544921875 1004.8336181640625 2534.5008544921875 1004.8336181640625Q2655.46826171875 1004.8336181640625 2738.0270080566406 976.4168090820312Q2820.5857543945312 948.0 2870.269287109375 895.1247863769531Q2919.9528198242188 842.2495727539062 2942.2195434570312 768.79931640625Q2964.4862670898438 695.3490600585938 2964.4862670898438 605.8988037109375V0.0ZM2390.1826782226562 -22.7667236328125Q2244.0325927734375 -22.7667236328125 2167.607635498047 50.2667236328125Q2091.1826782226562 123.3001708984375 2091.1826782226562 257.98370361328125V286.06689453125Q2091.1826782226562 429.1337890625 2179.2161254882812 497.5921936035156Q2267.2495727539062 566.0505981445312 2458.2332763671875 591.667236328125L2735.7487182617188 629.8336181640625L2750.5823364257812 464.8319091796875L2495.0343017578125 428.28216552734375Q2410.5188598632812 416.58233642578125 2375.3777770996094 387.832763671875Q2340.2366943359375 359.08319091796875 2340.2366943359375 303.20068359375V293.0343017578125Q2340.2366943359375 238.3018798828125 2374.836181640625 207.6689453125Q2409.4356689453125 177.0360107421875 2482.934814453125 177.0360107421875Q2548.667236328125 177.0360107421875 2596.0415954589844 197.86062622070312Q2643.4159545898438 218.68524169921875 2673.6239318847656 253.55960083007812Q2703.8319091796875 288.4339599609375 2716.8319091796875 330.6998291015625L2752.6492309570312 203.91680908203125H2708.5986328125Q2692.9819946289062 141.2332763671875 2657.7071228027344 89.84991455078125Q2622.4322509765625 38.466552734375 2558.040740966797 7.84991455078125Q2493.6492309570312 -22.7667236328125 2390.1826782226562 -22.7667236328125ZM3661.1029052734375 212.48626708984375 3524.1337890625 153.3018798828125 3769.2315673828125 980.6835327148438H4031.9528198242188L3611.1046142578125 -344.0H3353.6835327148438L3507.9168090820312 137.61834716796875L3626.5857543945312 41.7667236328125H3340.797607421875L3056.0325927734375 980.6835327148438H3320.7538452148438L3524.1174926757812 212.48626708984375Z"/></svg>