<svg xmlns="http://www.w3.org/2000/svg" viewBox="0 0 4323.9 1816.6" width="4324" height="1817"><path fill="currentColor" transform="translate(65.67 1375.32) scale(1.00000 -1.00000)" d="M395.1646728515625 0.0 31.64923095703125 1278.0H304.13720703125L583.867919921875 195.85333251953125H607.2512817382812L887.3653564453125 1278.0H1159.469970703125L796.9545288085938 0.0ZM1796.1029052734375 212.48626708984375 1659.1337890625 153.3018798828125 1904.2315673828125 980.6835327148438H2166.9528198242188L1746.1046142578125 -344.0H1488.6835327148438L1642.9168090820312 137.61834716796875L1761.5857543945312 41.7667236328125H1475.797607421875L1191.0325927734375 980.6835327148438H1455.7538452148438L1659.1174926757812 212.48626708984375ZM2840.2152709960938 0.0 2848.9819946289062 239.667236328125 2841.9819946289062 261.61663818359375V568.8499145507812L2841.4485473632812 612.8662109375Q2841.4485473632812 708.998291015625 2788.9322509765625 754.1393737792969Q2736.4159545898438 799.2804565429688 2617.0831909179688 799.2804565429688Q2516.3833618164062 799.2804565429688 2427.808319091797 772.5806274414062Q2339.2332763671875 745.8807983398438 2264.0162963867188 710.9476928710938L2286.2332763671875 915.20068359375Q2330.06689453125 937.8173217773438 2386.7504272460938 958.4755554199219Q2443.4339599609375 979.1337890625 2512.9674072265625 991.9837036132812Q2582.5008544921875 1004.8336181640625 2663.5008544921875 1004.8336181640625Q2784.46826171875 1004.8336181640625 2867.0270080566406 976.4168090820312Q2949.5857543945312 948.0 2999.269287109375 895.1247863769531Q3048.9528198242188 842.2495727539062 3071.2195434570312 768.79931640625Q3093.4862670898438 695.3490600585938 3093.4862670898438 605.8988037109375V0.0ZM2519.1826782226562 -22.7667236328125Q2373.0325927734375 -22.7667236328125 2296.607635498047 50.2667236328125Q2220.1826782226562 123.3001708984375 2220.1826782226562 257.98370361328125V286.06689453125Q2220.1826782226562 429.1337890625 2308.2161254882812 497.5921936035156Q2396.2495727539062 566.0505981445312 2587.2332763671875 591.667236328125L2864.7487182617188 629.8336181640625L2879.5823364257812 464.8319091796875L2624.0343017578125 428.28216552734375Q2539.5188598632812 416.58233642578125 2504.3777770996094 387.832763671875Q2469.2366943359375 359.08319091796875 2469.2366943359375 303.20068359375V293.0343017578125Q2469.2366943359375 238.3018798828125 2503.836181640625 207.6689453125Q2538.4356689453125 177.0360107421875 2611.934814453125 177.0360107421875Q2677.667236328125 177.0360107421875 2725.0415954589844 197.86062622070312Q2772.4159545898438 218.68524169921875 2802.6239318847656 253.55960083007812Q2832.8319091796875 288.4339599609375 2845.8319091796875 330.6998291015625L2881.6492309570312 203.91680908203125H2837.5986328125Q2821.9819946289062 141.2332763671875 2786.7071228027344 89.84991455078125Q2751.4322509765625 38.466552734375 2687.040740966797 7.84991455078125Q2622.6492309570312 -22.7667236328125 2519.1826782226562 -22.7667236328125ZM3790.1029052734375 212.48626708984375 3653.1337890625 153.3018798828125 3898.2315673828125 980.6835327148438H4160.952819824219L3740.1046142578125 -344.0H3482.6835327148438L3636.9168090820312 137.61834716796875L3755.5857543945312 41.7667236328125H3469.797607421875L3185.0325927734375 980.6835327148438H3449.7538452148438L3653.1174926757812 212.48626708984375Z"/></svg>