<svg xmlns="http://www.w3.org/2000/svg" viewBox="0 0 96 96" width="96" height="96"><path d="M 68.35 15.43 A 38.40 38.40 0 0 1 68.35 80.57" fill="none" stroke="currentColor" stroke-width="8.16" stroke-linecap="round"/><path d="M 27.65 80.57 A 38.40 38.40 0 0 1 27.65 15.43" fill="none" stroke="currentColor" stroke-width="8.16" stroke-linecap="round"/><path d="M 72.46 87.14 L 62.90 83.39 L 64.24 73.99 Z" fill="currentColor"/><path d="M 23.54 8.86 L 33.10 12.61 L 31.76 22.01 Z" fill="currentColor"/><path fill="currentColor" transform="translate(31.31 68.16) scale(0.03155 -0.03155)" d="M976.9814453125 1278.0H66.6591796875L80.8994140625 1091.95703125H991.2216796875ZM834.00390625 10.7001953125 649.806640625 230.8564453125Q610.8662109375 277.2568359375 575.6259765625 316.34716796875Q540.3857421875 355.4375 500.33544921875 391.94775390625Q460.28515625 428.4580078125 406.64453125 465.6181640625L407.8642578125 537.83984375L78.6591796875 617.2216796875V407.5771484375L200.2197265625 391.796875L499.0166015625 0.0H834.00390625ZM440.23828125 1125.556640625Q498.3779296875 1073.876953125 523.32763671875 1013.94775390625Q548.27734375 954.0185546875 548.27734375 878.0595703125V838.517578125Q548.27734375 728.2197265625 487.158203125 672.720703125Q426.0390625 617.2216796875 278.48046875 617.2216796875H78.6591796875L270.8623046875 411.7373046875L365.2421875 414.8173828125Q600.4228515625 423.0576171875 711.123046875 524.9375Q821.8232421875 626.8173828125 821.8232421875 817.4765625V847.2177734375Q821.8232421875 933.27734375 796.1435546875 1002.9169921875Q770.4638671875 1072.556640625 716.7841796875 1125.556640625ZM976.9814453125 952.720703125H66.6591796875L80.8994140625 766.677734375H991.2216796875Z"/></svg>