<svg xmlns="http://www.w3.org/2000/svg" xmlns:xlink="http://www.w3.org/1999/xlink" zoomAndPan="magnify" preserveAspectRatio="xMidYMid meet" version="1.2" viewBox="160.1 108.87 85.29 108.42"><defs><clipPath id="03cc156355"><path d="M 160.597656 108.867188 L 244.597656 108.867188 L 244.597656 192.867188 L 160.597656 192.867188 Z M 160.597656 108.867188 "/></clipPath><clipPath id="865aeb78dc"><path d="M 175.351562 130.429688 L 184.894531 130.429688 L 184.894531 140 L 175.351562 140 Z M 175.351562 130.429688 "/></clipPath><clipPath id="c1c1764ead"><path d="M 177 132 L 204 132 L 204 182.179688 L 177 182.179688 Z M 177 132 "/></clipPath><clipPath id="46c95ccac6"><path d="M 201 132 L 229 132 L 229 182.179688 L 201 182.179688 Z M 201 132 "/></clipPath><clipPath id="9da2efec73"><path d="M 220 131 L 230.003906 131 L 230.003906 140.128906 L 220 140.128906 Z M 220 131 "/></clipPath></defs><g id="f98511a4cc"><g clip-rule="nonzero" clip-path="url(#03cc156355)"><path style=" stroke:none;fill-rule:nonzero;fill:#9ba6fb;fill-opacity:1;" d="M 244.597656 150.867188 C 244.597656 152.242188 244.527344 153.617188 244.394531 154.984375 C 244.257812 156.355469 244.058594 157.714844 243.789062 159.0625 C 243.519531 160.410156 243.1875 161.742188 242.789062 163.058594 C 242.386719 164.375 241.925781 165.671875 241.398438 166.941406 C 240.871094 168.210938 240.285156 169.453125 239.636719 170.667969 C 238.988281 171.878906 238.28125 173.058594 237.519531 174.203125 C 236.753906 175.347656 235.933594 176.449219 235.0625 177.511719 C 234.191406 178.574219 233.265625 179.59375 232.292969 180.566406 C 231.320312 181.539062 230.304688 182.460938 229.242188 183.335938 C 228.175781 184.207031 227.074219 185.027344 225.929688 185.789062 C 224.785156 186.554688 223.609375 187.261719 222.394531 187.910156 C 221.183594 188.558594 219.941406 189.144531 218.667969 189.671875 C 217.398438 190.199219 216.105469 190.660156 214.789062 191.058594 C 213.472656 191.460938 212.140625 191.792969 210.789062 192.0625 C 209.441406 192.328125 208.082031 192.53125 206.714844 192.664062 C 205.34375 192.800781 203.972656 192.867188 202.597656 192.867188 C 201.21875 192.867188 199.847656 192.800781 198.480469 192.664062 C 197.109375 192.53125 195.75 192.328125 194.402344 192.0625 C 193.054688 191.792969 191.71875 191.460938 190.402344 191.058594 C 189.089844 190.660156 187.792969 190.199219 186.523438 189.671875 C 185.253906 189.144531 184.011719 188.558594 182.796875 187.910156 C 181.585938 187.261719 180.40625 186.554688 179.261719 185.789062 C 178.117188 185.027344 177.015625 184.207031 175.953125 183.335938 C 174.886719 182.460938 173.871094 181.539062 172.898438 180.566406 C 171.925781 179.59375 171.003906 178.574219 170.128906 177.511719 C 169.257812 176.449219 168.4375 175.347656 167.675781 174.203125 C 166.910156 173.058594 166.203125 171.878906 165.554688 170.667969 C 164.90625 169.453125 164.320312 168.210938 163.792969 166.941406 C 163.265625 165.671875 162.804688 164.375 162.40625 163.058594 C 162.003906 161.742188 161.671875 160.410156 161.402344 159.0625 C 161.136719 157.714844 160.933594 156.355469 160.796875 154.984375 C 160.664062 153.617188 160.597656 152.242188 160.597656 150.867188 C 160.597656 149.492188 160.664062 148.121094 160.796875 146.75 C 160.933594 145.382812 161.136719 144.023438 161.402344 142.675781 C 161.671875 141.324219 162.003906 139.992188 162.40625 138.675781 C 162.804688 137.359375 163.265625 136.066406 163.792969 134.796875 C 164.320312 133.523438 164.90625 132.28125 165.554688 131.070312 C 166.203125 129.855469 166.910156 128.679688 167.675781 127.535156 C 168.4375 126.390625 169.257812 125.285156 170.128906 124.222656 C 171.003906 123.160156 171.925781 122.140625 172.898438 121.167969 C 173.871094 120.195312 174.886719 119.273438 175.953125 118.402344 C 177.015625 117.527344 178.117188 116.710938 179.261719 115.945312 C 180.40625 115.183594 181.585938 114.476562 182.796875 113.828125 C 184.011719 113.179688 185.253906 112.589844 186.523438 112.066406 C 187.792969 111.539062 189.089844 111.074219 190.402344 110.675781 C 191.71875 110.277344 193.054688 109.945312 194.402344 109.675781 C 195.75 109.40625 197.109375 109.207031 198.480469 109.070312 C 199.847656 108.9375 201.21875 108.867188 202.597656 108.867188 C 203.972656 108.867188 205.34375 108.9375 206.714844 109.070312 C 208.082031 109.207031 209.441406 109.40625 210.789062 109.675781 C 212.140625 109.945312 213.472656 110.277344 214.789062 110.675781 C 216.105469 111.074219 217.398438 111.539062 218.667969 112.066406 C 219.941406 112.589844 221.183594 113.179688 222.394531 113.828125 C 223.609375 114.476562 224.785156 115.183594 225.929688 115.945312 C 227.074219 116.710938 228.175781 117.527344 229.242188 118.402344 C 230.304688 119.273438 231.320312 120.195312 232.292969 121.167969 C 233.265625 122.140625 234.191406 123.160156 235.0625 124.222656 C 235.933594 125.285156 236.753906 126.390625 237.519531 127.535156 C 238.28125 128.679688 238.988281 129.855469 239.636719 131.070312 C 240.285156 132.28125 240.871094 133.523438 241.398438 134.796875 C 241.925781 136.066406 242.386719 137.359375 242.789062 138.675781 C 243.1875 139.992188 243.519531 141.324219 243.789062 142.675781 C 244.058594 144.023438 244.257812 145.382812 244.394531 146.75 C 244.527344 148.121094 244.597656 149.492188 244.597656 150.867188 Z M 244.597656 150.867188 "/></g><path style=" stroke:none;fill-rule:nonzero;fill:#cbd3ff;fill-opacity:1;" d="M 242.160156 150.867188 C 242.160156 152.164062 242.097656 153.457031 241.972656 154.746094 C 241.84375 156.035156 241.652344 157.316406 241.402344 158.585938 C 241.148438 159.859375 240.832031 161.113281 240.457031 162.351562 C 240.082031 163.59375 239.644531 164.8125 239.148438 166.007812 C 238.652344 167.207031 238.101562 168.375 237.488281 169.519531 C 236.878906 170.660156 236.214844 171.773438 235.492188 172.847656 C 234.773438 173.925781 234.003906 174.964844 233.179688 175.96875 C 232.359375 176.96875 231.488281 177.929688 230.574219 178.84375 C 229.65625 179.761719 228.699219 180.628906 227.695312 181.453125 C 226.695312 182.273438 225.65625 183.046875 224.578125 183.765625 C 223.5 184.484375 222.390625 185.152344 221.246094 185.761719 C 220.105469 186.371094 218.933594 186.925781 217.738281 187.421875 C 216.539062 187.917969 215.320312 188.355469 214.082031 188.730469 C 212.839844 189.105469 211.585938 189.421875 210.316406 189.671875 C 209.042969 189.925781 207.765625 190.117188 206.472656 190.242188 C 205.183594 190.371094 203.890625 190.433594 202.597656 190.433594 C 201.300781 190.433594 200.007812 190.371094 198.71875 190.242188 C 197.429688 190.117188 196.148438 189.925781 194.878906 189.671875 C 193.605469 189.421875 192.351562 189.105469 191.109375 188.730469 C 189.871094 188.355469 188.652344 187.917969 187.457031 187.421875 C 186.257812 186.925781 185.089844 186.371094 183.945312 185.761719 C 182.800781 185.152344 181.691406 184.484375 180.613281 183.765625 C 179.539062 183.046875 178.496094 182.273438 177.496094 181.453125 C 176.496094 180.628906 175.535156 179.761719 174.621094 178.84375 C 173.703125 177.929688 172.832031 176.96875 172.011719 175.96875 C 171.191406 174.964844 170.417969 173.925781 169.699219 172.847656 C 168.980469 171.773438 168.3125 170.660156 167.703125 169.519531 C 167.09375 168.375 166.539062 167.207031 166.042969 166.007812 C 165.546875 164.8125 165.109375 163.59375 164.734375 162.351562 C 164.359375 161.113281 164.042969 159.859375 163.792969 158.585938 C 163.539062 157.316406 163.347656 156.035156 163.222656 154.746094 C 163.09375 153.457031 163.03125 152.164062 163.03125 150.867188 C 163.03125 149.574219 163.09375 148.28125 163.222656 146.988281 C 163.347656 145.699219 163.539062 144.421875 163.792969 143.148438 C 164.042969 141.878906 164.359375 140.625 164.734375 139.382812 C 165.109375 138.144531 165.546875 136.925781 166.042969 135.726562 C 166.539062 134.53125 167.09375 133.359375 167.703125 132.21875 C 168.3125 131.074219 168.980469 129.964844 169.699219 128.886719 C 170.417969 127.808594 171.191406 126.769531 172.011719 125.769531 C 172.832031 124.765625 173.703125 123.808594 174.621094 122.890625 C 175.535156 121.976562 176.496094 121.105469 177.496094 120.285156 C 178.496094 119.460938 179.539062 118.691406 180.613281 117.972656 C 181.691406 117.25 182.800781 116.585938 183.945312 115.976562 C 185.089844 115.363281 186.257812 114.8125 187.457031 114.316406 C 188.652344 113.820312 189.871094 113.382812 191.109375 113.007812 C 192.351562 112.628906 193.605469 112.316406 194.878906 112.0625 C 196.148438 111.808594 197.429688 111.621094 198.71875 111.492188 C 200.007812 111.367188 201.300781 111.304688 202.597656 111.304688 C 203.890625 111.304688 205.183594 111.367188 206.472656 111.492188 C 207.765625 111.621094 209.042969 111.808594 210.316406 112.0625 C 211.585938 112.316406 212.839844 112.628906 214.082031 113.007812 C 215.320312 113.382812 216.539062 113.820312 217.738281 114.316406 C 218.933594 114.8125 220.105469 115.363281 221.246094 115.976562 C 222.390625 116.585938 223.5 117.25 224.578125 117.972656 C 225.65625 118.691406 226.695312 119.460938 227.695312 120.285156 C 228.699219 121.105469 229.65625 121.976562 230.574219 122.890625 C 231.488281 123.808594 232.359375 124.765625 233.179688 125.769531 C 234.003906 126.769531 234.773438 127.808594 235.492188 128.886719 C 236.214844 129.964844 236.878906 131.074219 237.488281 132.21875 C 238.101562 133.359375 238.652344 134.53125 239.148438 135.726562 C 239.644531 136.925781 240.082031 138.144531 240.457031 139.382812 C 240.832031 140.625 241.148438 141.878906 241.402344 143.148438 C 241.652344 144.421875 241.84375 145.699219 241.972656 146.988281 C 242.097656 148.28125 242.160156 149.574219 242.160156 150.867188 Z M 242.160156 150.867188 "/><path style=" stroke:none;fill-rule:nonzero;fill:#6366f1;fill-opacity:1;" d="M 236.074219 150.867188 C 236.074219 151.964844 236.019531 153.058594 235.914062 154.148438 C 235.804688 155.242188 235.644531 156.324219 235.429688 157.398438 C 235.21875 158.476562 234.949219 159.539062 234.632812 160.585938 C 234.316406 161.636719 233.945312 162.667969 233.527344 163.679688 C 233.105469 164.691406 232.636719 165.683594 232.121094 166.648438 C 231.605469 167.617188 231.042969 168.554688 230.433594 169.46875 C 229.824219 170.378906 229.171875 171.257812 228.476562 172.105469 C 227.78125 172.953125 227.042969 173.765625 226.269531 174.539062 C 225.492188 175.316406 224.683594 176.050781 223.835938 176.746094 C 222.988281 177.441406 222.105469 178.09375 221.195312 178.703125 C 220.285156 179.3125 219.34375 179.875 218.378906 180.394531 C 217.410156 180.910156 216.421875 181.378906 215.40625 181.796875 C 214.394531 182.21875 213.363281 182.585938 212.3125 182.90625 C 211.265625 183.222656 210.203125 183.488281 209.128906 183.703125 C 208.050781 183.917969 206.96875 184.078125 205.878906 184.183594 C 204.785156 184.292969 203.691406 184.347656 202.597656 184.347656 C 201.5 184.347656 200.40625 184.292969 199.316406 184.183594 C 198.222656 184.078125 197.140625 183.917969 196.066406 183.703125 C 194.988281 183.488281 193.925781 183.222656 192.878906 182.90625 C 191.828125 182.585938 190.796875 182.21875 189.785156 181.796875 C 188.773438 181.378906 187.78125 180.910156 186.816406 180.394531 C 185.847656 179.875 184.910156 179.3125 183.996094 178.703125 C 183.085938 178.09375 182.207031 177.441406 181.359375 176.746094 C 180.511719 176.050781 179.699219 175.316406 178.921875 174.539062 C 178.148438 173.765625 177.414062 172.953125 176.71875 172.105469 C 176.023438 171.257812 175.371094 170.378906 174.761719 169.46875 C 174.152344 168.554688 173.585938 167.617188 173.070312 166.648438 C 172.554688 165.683594 172.085938 164.691406 171.667969 163.679688 C 171.246094 162.667969 170.878906 161.636719 170.558594 160.585938 C 170.242188 159.539062 169.976562 158.476562 169.761719 157.398438 C 169.546875 156.324219 169.386719 155.242188 169.277344 154.148438 C 169.171875 153.058594 169.117188 151.964844 169.117188 150.867188 C 169.117188 149.773438 169.171875 148.679688 169.277344 147.585938 C 169.386719 146.496094 169.546875 145.414062 169.761719 144.335938 C 169.976562 143.261719 170.242188 142.199219 170.558594 141.148438 C 170.878906 140.101562 171.246094 139.070312 171.667969 138.058594 C 172.085938 137.042969 172.554688 136.054688 173.070312 135.085938 C 173.585938 134.121094 174.152344 133.179688 174.761719 132.269531 C 175.371094 131.355469 176.023438 130.476562 176.71875 129.628906 C 177.414062 128.78125 178.148438 127.972656 178.921875 127.195312 C 179.699219 126.421875 180.511719 125.683594 181.359375 124.988281 C 182.207031 124.292969 183.085938 123.640625 183.996094 123.03125 C 184.910156 122.421875 185.847656 121.859375 186.816406 121.34375 C 187.78125 120.828125 188.773438 120.359375 189.785156 119.9375 C 190.796875 119.519531 191.828125 119.148438 192.878906 118.832031 C 193.925781 118.511719 194.988281 118.246094 196.066406 118.035156 C 197.140625 117.820312 198.222656 117.660156 199.316406 117.550781 C 200.40625 117.445312 201.5 117.390625 202.597656 117.390625 C 203.691406 117.390625 204.785156 117.445312 205.878906 117.550781 C 206.96875 117.660156 208.050781 117.820312 209.128906 118.035156 C 210.203125 118.246094 211.265625 118.511719 212.3125 118.832031 C 213.363281 119.148438 214.394531 119.519531 215.40625 119.9375 C 216.421875 120.359375 217.410156 120.828125 218.378906 121.34375 C 219.34375 121.859375 220.285156 122.421875 221.195312 123.03125 C 222.105469 123.640625 222.988281 124.292969 223.835938 124.988281 C 224.683594 125.683594 225.492188 126.421875 226.269531 127.195312 C 227.042969 127.972656 227.78125 128.78125 228.476562 129.628906 C 229.171875 130.476562 229.824219 131.355469 230.433594 132.269531 C 231.042969 133.179688 231.605469 134.121094 232.121094 135.085938 C 232.636719 136.054688 233.105469 137.042969 233.527344 138.058594 C 233.945312 139.070312 234.316406 140.101562 234.632812 141.148438 C 234.949219 142.199219 235.21875 143.261719 235.429688 144.335938 C 235.644531 145.414062 235.804688 146.496094 235.914062 147.585938 C 236.019531 148.679688 236.074219 149.773438 236.074219 150.867188 Z M 236.074219 150.867188 "/><g clip-rule="nonzero" clip-path="url(#865aeb78dc)"><path style=" stroke:none;fill-rule:nonzero;fill:#ffffff;fill-opacity:1;" d="M 184.890625 131.554688 C 184.890625 132.054688 184.554688 132.515625 184.046875 132.648438 C 182.238281 133.121094 180.394531 133.40625 178.542969 133.488281 L 181.621094 138.246094 C 181.957031 138.769531 181.816406 139.464844 181.289062 139.8125 C 180.765625 140.148438 180.066406 140 179.730469 139.476562 L 175.53125 132.988281 C 175.304688 132.632812 175.292969 132.175781 175.496094 131.820312 C 175.703125 131.449219 176.097656 131.230469 176.515625 131.242188 C 178.851562 131.324219 181.195312 131.0625 183.476562 130.464844 C 184.078125 130.304688 184.695312 130.664062 184.851562 131.269531 C 184.878906 131.363281 184.890625 131.460938 184.890625 131.554688 "/></g><g clip-rule="nonzero" clip-path="url(#c1c1764ead)"><path style=" stroke:none;fill-rule:nonzero;fill:#ffffff;fill-opacity:1;" d="M 203.851562 181.019531 C 203.851562 181.625 203.371094 182.132812 202.761719 182.152344 C 202.140625 182.175781 201.617188 181.6875 201.597656 181.066406 C 201.203125 170.585938 199.335938 161.800781 195.878906 154.207031 C 191.835938 145.339844 185.464844 138.257812 177.9375 134.277344 C 177.375 133.988281 177.175781 133.3125 177.464844 132.753906 C 177.753906 132.199219 178.4375 131.988281 178.988281 132.28125 C 186.953125 136.496094 193.683594 143.945312 197.929688 153.273438 C 201.511719 161.136719 203.449219 170.199219 203.847656 180.976562 C 203.847656 180.996094 203.851562 181.011719 203.851562 181.019531 "/></g><g clip-rule="nonzero" clip-path="url(#46c95ccac6)"><path style=" stroke:none;fill-rule:nonzero;fill:#ffffff;fill-opacity:1;" d="M 228.109375 133.277344 C 228.109375 133.6875 227.890625 134.074219 227.507812 134.277344 C 219.980469 138.257812 213.605469 145.339844 209.5625 154.207031 C 206.105469 161.804688 204.234375 170.589844 203.847656 181.066406 C 203.828125 181.6875 203.304688 182.175781 202.679688 182.152344 C 202.074219 182.132812 201.59375 181.625 201.59375 181.019531 C 201.59375 181.011719 201.597656 180.996094 201.597656 180.976562 C 201.992188 170.207031 203.929688 161.140625 207.511719 153.273438 C 211.761719 143.945312 218.488281 136.496094 226.453125 132.28125 C 227.003906 131.988281 227.6875 132.199219 227.976562 132.753906 C 228.066406 132.921875 228.109375 133.097656 228.109375 133.277344 "/></g><g clip-rule="nonzero" clip-path="url(#9da2efec73)"><path style=" stroke:none;fill-rule:nonzero;fill:#ffffff;fill-opacity:1;" d="M 230.003906 132.203125 C 230.003906 132.410156 229.941406 132.621094 229.828125 132.808594 C 228.574219 134.792969 227.609375 136.953125 226.964844 139.214844 C 226.796875 139.816406 226.171875 140.164062 225.570312 139.992188 C 224.972656 139.816406 224.625 139.160156 224.796875 138.597656 C 225.308594 136.796875 226.003906 135.070312 226.867188 133.421875 L 221.210938 133.667969 C 220.585938 133.691406 220.0625 133.207031 220.035156 132.585938 C 220.015625 131.992188 220.492188 131.433594 221.113281 131.40625 L 228.824219 131.074219 C 229.242188 131.054688 229.636719 131.269531 229.847656 131.636719 C 229.949219 131.8125 230.003906 132.003906 230.003906 132.203125 "/></g><g style="fill:#6366f1;fill-opacity:1;"><g transform="translate(159.347381, 212.505632)"><path style="stroke:none" d="M 5.6875 0.125 C 4.757812 0.125 3.929688 -0.0234375 3.203125 -0.328125 C 2.472656 -0.628906 1.890625 -1.070312 1.453125 -1.65625 C 1.015625 -2.238281 0.78125 -2.945312 0.75 -3.78125 L 4.03125 -3.78125 C 4.082031 -3.3125 4.242188 -2.953125 4.515625 -2.703125 C 4.796875 -2.460938 5.15625 -2.34375 5.59375 -2.34375 C 6.050781 -2.34375 6.410156 -2.445312 6.671875 -2.65625 C 6.941406 -2.863281 7.078125 -3.15625 7.078125 -3.53125 C 7.078125 -3.84375 6.96875 -4.097656 6.75 -4.296875 C 6.539062 -4.503906 6.285156 -4.671875 5.984375 -4.796875 C 5.679688 -4.929688 5.25 -5.082031 4.6875 -5.25 C 3.863281 -5.507812 3.191406 -5.765625 2.671875 -6.015625 C 2.160156 -6.265625 1.71875 -6.632812 1.34375 -7.125 C 0.976562 -7.613281 0.796875 -8.253906 0.796875 -9.046875 C 0.796875 -10.222656 1.21875 -11.144531 2.0625 -11.8125 C 2.914062 -12.476562 4.03125 -12.8125 5.40625 -12.8125 C 6.789062 -12.8125 7.910156 -12.476562 8.765625 -11.8125 C 9.617188 -11.144531 10.078125 -10.21875 10.140625 -9.03125 L 6.796875 -9.03125 C 6.773438 -9.4375 6.625 -9.753906 6.34375 -9.984375 C 6.070312 -10.222656 5.722656 -10.34375 5.296875 -10.34375 C 4.921875 -10.34375 4.617188 -10.242188 4.390625 -10.046875 C 4.160156 -9.847656 4.046875 -9.566406 4.046875 -9.203125 C 4.046875 -8.796875 4.238281 -8.476562 4.625 -8.25 C 5.007812 -8.019531 5.609375 -7.769531 6.421875 -7.5 C 7.242188 -7.226562 7.910156 -6.96875 8.421875 -6.71875 C 8.929688 -6.46875 9.367188 -6.097656 9.734375 -5.609375 C 10.109375 -5.128906 10.296875 -4.515625 10.296875 -3.765625 C 10.296875 -3.046875 10.113281 -2.390625 9.75 -1.796875 C 9.382812 -1.210938 8.851562 -0.742188 8.15625 -0.390625 C 7.457031 -0.046875 6.632812 0.125 5.6875 0.125 Z M 5.6875 0.125 "/></g></g><g style="fill:#6366f1;fill-opacity:1;"><g transform="translate(170.410201, 212.505632)"><path style="stroke:none" d="M 4.1875 -8.625 C 4.488281 -9.09375 4.90625 -9.46875 5.4375 -9.75 C 5.96875 -10.039062 6.585938 -10.1875 7.296875 -10.1875 C 8.117188 -10.1875 8.863281 -9.972656 9.53125 -9.546875 C 10.207031 -9.128906 10.738281 -8.53125 11.125 -7.75 C 11.519531 -6.976562 11.71875 -6.078125 11.71875 -5.046875 C 11.71875 -4.003906 11.519531 -3.09375 11.125 -2.3125 C 10.738281 -1.53125 10.207031 -0.925781 9.53125 -0.5 C 8.863281 -0.0703125 8.117188 0.140625 7.296875 0.140625 C 6.597656 0.140625 5.976562 0 5.4375 -0.28125 C 4.90625 -0.570312 4.488281 -0.945312 4.1875 -1.40625 L 4.1875 4.78125 L 1.109375 4.78125 L 1.109375 -10.046875 L 4.1875 -10.046875 Z M 8.59375 -5.046875 C 8.59375 -5.804688 8.378906 -6.40625 7.953125 -6.84375 C 7.523438 -7.28125 7 -7.5 6.375 -7.5 C 5.757812 -7.5 5.238281 -7.273438 4.8125 -6.828125 C 4.382812 -6.390625 4.171875 -5.785156 4.171875 -5.015625 C 4.171875 -4.253906 4.382812 -3.648438 4.8125 -3.203125 C 5.238281 -2.753906 5.757812 -2.53125 6.375 -2.53125 C 6.988281 -2.53125 7.507812 -2.753906 7.9375 -3.203125 C 8.375 -3.660156 8.59375 -4.273438 8.59375 -5.046875 Z M 8.59375 -5.046875 "/></g></g><g style="fill:#6366f1;fill-opacity:1;"><g transform="translate(182.624273, 212.505632)"><path style="stroke:none" d="M 4.1875 -13.3125 L 4.1875 0 L 1.109375 0 L 1.109375 -13.3125 Z M 4.1875 -13.3125 "/></g></g><g style="fill:#6366f1;fill-opacity:1;"><g transform="translate(187.930829, 212.505632)"><path style="stroke:none" d="M 2.65625 -11.09375 C 2.125 -11.09375 1.6875 -11.25 1.34375 -11.5625 C 1 -11.882812 0.828125 -12.28125 0.828125 -12.75 C 0.828125 -13.226562 1 -13.625 1.34375 -13.9375 C 1.6875 -14.257812 2.125 -14.421875 2.65625 -14.421875 C 3.1875 -14.421875 3.625 -14.257812 3.96875 -13.9375 C 4.3125 -13.625 4.484375 -13.226562 4.484375 -12.75 C 4.484375 -12.28125 4.3125 -11.882812 3.96875 -11.5625 C 3.625 -11.25 3.1875 -11.09375 2.65625 -11.09375 Z M 4.1875 -10.046875 L 4.1875 0 L 1.109375 0 L 1.109375 -10.046875 Z M 4.1875 -10.046875 "/></g></g><g style="fill:#6366f1;fill-opacity:1;"><g transform="translate(193.237386, 212.505632)"><path style="stroke:none" d="M 6.71875 -2.609375 L 6.71875 0 L 5.140625 0 C 4.023438 0 3.15625 -0.269531 2.53125 -0.8125 C 1.914062 -1.363281 1.609375 -2.253906 1.609375 -3.484375 L 1.609375 -7.484375 L 0.375 -7.484375 L 0.375 -10.046875 L 1.609375 -10.046875 L 1.609375 -12.484375 L 4.6875 -12.484375 L 4.6875 -10.046875 L 6.703125 -10.046875 L 6.703125 -7.484375 L 4.6875 -7.484375 L 4.6875 -3.453125 C 4.6875 -3.148438 4.753906 -2.929688 4.890625 -2.796875 C 5.035156 -2.671875 5.273438 -2.609375 5.609375 -2.609375 Z M 6.71875 -2.609375 "/></g></g><g style="fill:#6366f1;fill-opacity:1;"><g transform="translate(200.54065, 212.505632)"><path style="stroke:none" d="M 18.5 -12.640625 L 15.203125 0 L 11.484375 0 L 9.46875 -8.3125 L 7.375 0 L 3.65625 0 L 0.453125 -12.640625 L 3.75 -12.640625 L 5.5625 -3.4375 L 7.8125 -12.640625 L 11.203125 -12.640625 L 13.359375 -3.4375 L 15.1875 -12.640625 Z M 18.5 -12.640625 "/></g></g><g style="fill:#6366f1;fill-opacity:1;"><g transform="translate(219.464369, 212.505632)"><path style="stroke:none" d="M 2.65625 -11.09375 C 2.125 -11.09375 1.6875 -11.25 1.34375 -11.5625 C 1 -11.882812 0.828125 -12.28125 0.828125 -12.75 C 0.828125 -13.226562 1 -13.625 1.34375 -13.9375 C 1.6875 -14.257812 2.125 -14.421875 2.65625 -14.421875 C 3.1875 -14.421875 3.625 -14.257812 3.96875 -13.9375 C 4.3125 -13.625 4.484375 -13.226562 4.484375 -12.75 C 4.484375 -12.28125 4.3125 -11.882812 3.96875 -11.5625 C 3.625 -11.25 3.1875 -11.09375 2.65625 -11.09375 Z M 4.1875 -10.046875 L 4.1875 0 L 1.109375 0 L 1.109375 -10.046875 Z M 4.1875 -10.046875 "/></g></g><g style="fill:#6366f1;fill-opacity:1;"><g transform="translate(224.770926, 212.505632)"><path style="stroke:none" d="M 5.203125 0.140625 C 4.328125 0.140625 3.546875 -0.00390625 2.859375 -0.296875 C 2.179688 -0.597656 1.640625 -1.007812 1.234375 -1.53125 C 0.835938 -2.0625 0.617188 -2.648438 0.578125 -3.296875 L 3.625 -3.296875 C 3.65625 -2.941406 3.8125 -2.65625 4.09375 -2.4375 C 4.382812 -2.226562 4.742188 -2.125 5.171875 -2.125 C 5.546875 -2.125 5.835938 -2.195312 6.046875 -2.34375 C 6.265625 -2.5 6.375 -2.695312 6.375 -2.9375 C 6.375 -3.21875 6.222656 -3.425781 5.921875 -3.5625 C 5.617188 -3.707031 5.132812 -3.863281 4.46875 -4.03125 C 3.75 -4.195312 3.144531 -4.375 2.65625 -4.5625 C 2.175781 -4.75 1.765625 -5.039062 1.421875 -5.4375 C 1.078125 -5.84375 0.90625 -6.390625 0.90625 -7.078125 C 0.90625 -7.648438 1.0625 -8.171875 1.375 -8.640625 C 1.695312 -9.117188 2.164062 -9.492188 2.78125 -9.765625 C 3.394531 -10.046875 4.128906 -10.1875 4.984375 -10.1875 C 6.242188 -10.1875 7.234375 -9.875 7.953125 -9.25 C 8.679688 -8.625 9.101562 -7.796875 9.21875 -6.765625 L 6.375 -6.765625 C 6.320312 -7.117188 6.164062 -7.394531 5.90625 -7.59375 C 5.65625 -7.800781 5.316406 -7.90625 4.890625 -7.90625 C 4.535156 -7.90625 4.257812 -7.832031 4.0625 -7.6875 C 3.875 -7.550781 3.78125 -7.363281 3.78125 -7.125 C 3.78125 -6.84375 3.929688 -6.628906 4.234375 -6.484375 C 4.546875 -6.335938 5.023438 -6.191406 5.671875 -6.046875 C 6.410156 -5.859375 7.015625 -5.671875 7.484375 -5.484375 C 7.953125 -5.296875 8.363281 -4.992188 8.71875 -4.578125 C 9.070312 -4.160156 9.253906 -3.609375 9.265625 -2.921875 C 9.265625 -2.328125 9.097656 -1.796875 8.765625 -1.328125 C 8.441406 -0.867188 7.96875 -0.507812 7.34375 -0.25 C 6.726562 0.0078125 6.015625 0.140625 5.203125 0.140625 Z M 5.203125 0.140625 "/></g></g><g style="fill:#6366f1;fill-opacity:1;"><g transform="translate(234.808412, 212.505632)"><path style="stroke:none" d="M 10.578125 -5.1875 C 10.578125 -4.894531 10.5625 -4.59375 10.53125 -4.28125 L 3.5625 -4.28125 C 3.613281 -3.65625 3.816406 -3.175781 4.171875 -2.84375 C 4.523438 -2.519531 4.957031 -2.359375 5.46875 -2.359375 C 6.238281 -2.359375 6.773438 -2.679688 7.078125 -3.328125 L 10.34375 -3.328125 C 10.175781 -2.671875 9.875 -2.078125 9.4375 -1.546875 C 9 -1.015625 8.445312 -0.597656 7.78125 -0.296875 C 7.125 -0.00390625 6.390625 0.140625 5.578125 0.140625 C 4.597656 0.140625 3.722656 -0.0664062 2.953125 -0.484375 C 2.179688 -0.898438 1.578125 -1.5 1.140625 -2.28125 C 0.710938 -3.0625 0.5 -3.972656 0.5 -5.015625 C 0.5 -6.066406 0.710938 -6.976562 1.140625 -7.75 C 1.566406 -8.53125 2.164062 -9.128906 2.9375 -9.546875 C 3.707031 -9.972656 4.585938 -10.1875 5.578125 -10.1875 C 6.546875 -10.1875 7.410156 -9.984375 8.171875 -9.578125 C 8.929688 -9.171875 9.519531 -8.585938 9.9375 -7.828125 C 10.363281 -7.078125 10.578125 -6.195312 10.578125 -5.1875 Z M 7.4375 -6 C 7.4375 -6.519531 7.253906 -6.9375 6.890625 -7.25 C 6.535156 -7.5625 6.085938 -7.71875 5.546875 -7.71875 C 5.023438 -7.71875 4.585938 -7.566406 4.234375 -7.265625 C 3.878906 -6.972656 3.660156 -6.550781 3.578125 -6 Z M 7.4375 -6 "/></g></g></g></svg>