<svg xmlns="http://www.w3.org/2000/svg" xmlns:xlink="http://www.w3.org/1999/xlink" zoomAndPan="magnify" preserveAspectRatio="xMidYMid meet" version="1.2" viewBox="83.66 55.79 207.67 207.67"><defs><clipPath id="ec66828d4c"><path d="M 83.660156 55.792969 L 291.410156 55.792969 L 291.410156 263.542969 L 83.660156 263.542969 Z M 83.660156 55.792969 "/></clipPath><clipPath id="dcdd062924"><path d="M 122.386719 113.160156 L 146.175781 113.160156 L 146.175781 137 L 122.386719 137 Z M 122.386719 113.160156 "/></clipPath><clipPath id="a5ad20aba2"><path d="M 127 117 L 194 117 L 194 242.160156 L 127 242.160156 Z M 127 117 "/></clipPath><clipPath id="5081c987ca"><path d="M 187 117 L 254 117 L 254 242.160156 L 187 242.160156 Z M 187 117 "/></clipPath><clipPath id="9d0f9b0df0"><path d="M 233.644531 114.5625 L 258.660156 114.5625 L 258.660156 137.335938 L 233.644531 137.335938 Z M 233.644531 114.5625 "/></clipPath></defs><g id="48696bafda"><g clip-rule="nonzero" clip-path="url(#ec66828d4c)"><path style=" stroke:none;fill-rule:nonzero;fill:#9ba6fb;fill-opacity:1;" d="M 291.328125 159.628906 C 291.328125 161.328125 291.289062 163.023438 291.203125 164.722656 C 291.121094 166.417969 290.996094 168.113281 290.828125 169.804688 C 290.664062 171.496094 290.453125 173.183594 290.207031 174.863281 C 289.957031 176.542969 289.664062 178.21875 289.332031 179.882812 C 289.003906 181.550781 288.628906 183.207031 288.21875 184.855469 C 287.804688 186.503906 287.351562 188.144531 286.859375 189.769531 C 286.363281 191.394531 285.832031 193.007812 285.257812 194.609375 C 284.6875 196.207031 284.074219 197.792969 283.425781 199.363281 C 282.773438 200.933594 282.085938 202.484375 281.359375 204.023438 C 280.632812 205.558594 279.871094 207.074219 279.070312 208.574219 C 278.265625 210.074219 277.429688 211.550781 276.554688 213.007812 C 275.683594 214.464844 274.773438 215.902344 273.828125 217.3125 C 272.886719 218.726562 271.90625 220.117188 270.894531 221.480469 C 269.882812 222.847656 268.835938 224.183594 267.761719 225.5 C 266.683594 226.8125 265.570312 228.097656 264.429688 229.359375 C 263.289062 230.617188 262.117188 231.847656 260.917969 233.050781 C 259.714844 234.25 258.484375 235.421875 257.226562 236.5625 C 255.964844 237.703125 254.679688 238.8125 253.367188 239.890625 C 252.054688 240.96875 250.714844 242.015625 249.347656 243.027344 C 247.984375 244.039062 246.59375 245.019531 245.183594 245.960938 C 243.769531 246.90625 242.332031 247.816406 240.875 248.6875 C 239.417969 249.5625 237.941406 250.398438 236.441406 251.199219 C 234.941406 252 233.425781 252.765625 231.890625 253.492188 C 230.355469 254.21875 228.800781 254.90625 227.230469 255.558594 C 225.660156 256.207031 224.074219 256.820312 222.476562 257.390625 C 220.875 257.964844 219.261719 258.496094 217.636719 258.988281 C 216.011719 259.484375 214.371094 259.9375 212.726562 260.347656 C 211.078125 260.761719 209.417969 261.132812 207.753906 261.464844 C 206.085938 261.796875 204.410156 262.089844 202.730469 262.335938 C 201.050781 262.585938 199.363281 262.792969 197.671875 262.960938 C 195.980469 263.128906 194.289062 263.253906 192.589844 263.335938 C 190.894531 263.417969 189.195312 263.460938 187.496094 263.460938 C 185.796875 263.460938 184.097656 263.417969 182.398438 263.335938 C 180.703125 263.253906 179.007812 263.128906 177.316406 262.960938 C 175.625 262.792969 173.941406 262.585938 172.257812 262.335938 C 170.578125 262.089844 168.90625 261.796875 167.238281 261.464844 C 165.570312 261.132812 163.914062 260.761719 162.265625 260.347656 C 160.617188 259.9375 158.980469 259.484375 157.355469 258.988281 C 155.726562 258.496094 154.113281 257.964844 152.515625 257.390625 C 150.914062 256.820312 149.328125 256.207031 147.757812 255.558594 C 146.191406 254.90625 144.636719 254.21875 143.101562 253.492188 C 141.5625 252.765625 140.046875 252 138.546875 251.199219 C 137.050781 250.398438 135.570312 249.5625 134.113281 248.6875 C 132.65625 247.816406 131.222656 246.90625 129.808594 245.960938 C 128.394531 245.019531 127.007812 244.039062 125.640625 243.027344 C 124.277344 242.015625 122.9375 240.96875 121.625 239.890625 C 120.308594 238.8125 119.023438 237.703125 117.765625 236.5625 C 116.503906 235.421875 115.273438 234.25 114.074219 233.050781 C 112.871094 231.847656 111.699219 230.617188 110.558594 229.359375 C 109.417969 228.097656 108.308594 226.8125 107.230469 225.5 C 106.152344 224.183594 105.105469 222.847656 104.09375 221.480469 C 103.082031 220.117188 102.105469 218.726562 101.160156 217.3125 C 100.214844 215.902344 99.308594 214.464844 98.433594 213.007812 C 97.558594 211.550781 96.722656 210.074219 95.921875 208.574219 C 95.121094 207.074219 94.355469 205.558594 93.628906 204.023438 C 92.902344 202.484375 92.214844 200.933594 91.566406 199.363281 C 90.914062 197.792969 90.304688 196.207031 89.730469 194.609375 C 89.160156 193.007812 88.625 191.394531 88.132812 189.769531 C 87.640625 188.140625 87.1875 186.503906 86.773438 184.855469 C 86.359375 183.207031 85.988281 181.550781 85.65625 179.882812 C 85.324219 178.21875 85.035156 176.542969 84.785156 174.863281 C 84.535156 173.183594 84.328125 171.496094 84.160156 169.804688 C 83.996094 168.113281 83.871094 166.417969 83.785156 164.722656 C 83.703125 163.023438 83.660156 161.328125 83.660156 159.628906 C 83.660156 157.929688 83.703125 156.230469 83.785156 154.53125 C 83.871094 152.835938 83.996094 151.140625 84.160156 149.449219 C 84.328125 147.757812 84.535156 146.074219 84.785156 144.390625 C 85.035156 142.710938 85.324219 141.035156 85.65625 139.371094 C 85.988281 137.703125 86.359375 136.046875 86.773438 134.398438 C 87.1875 132.75 87.640625 131.113281 88.132812 129.484375 C 88.625 127.859375 89.160156 126.246094 89.730469 124.648438 C 90.304688 123.046875 90.914062 121.460938 91.566406 119.890625 C 92.214844 118.320312 92.902344 116.769531 93.628906 115.234375 C 94.355469 113.695312 95.121094 112.179688 95.921875 110.679688 C 96.722656 109.183594 97.558594 107.703125 98.433594 106.246094 C 99.308594 104.789062 100.214844 103.351562 101.160156 101.941406 C 102.105469 100.527344 103.082031 99.136719 104.09375 97.773438 C 105.105469 96.410156 106.152344 95.070312 107.230469 93.753906 C 108.308594 92.441406 109.417969 91.15625 110.558594 89.898438 C 111.699219 88.636719 112.871094 87.40625 114.074219 86.207031 C 115.273438 85.003906 116.503906 83.832031 117.765625 82.691406 C 119.023438 81.550781 120.308594 80.441406 121.625 79.363281 C 122.9375 78.285156 124.277344 77.238281 125.640625 76.226562 C 127.007812 75.214844 128.394531 74.238281 129.808594 73.292969 C 131.222656 72.347656 132.65625 71.441406 134.113281 70.566406 C 135.570312 69.691406 137.050781 68.855469 138.546875 68.054688 C 140.046875 67.253906 141.5625 66.488281 143.101562 65.761719 C 144.636719 65.035156 146.191406 64.347656 147.757812 63.695312 C 149.328125 63.046875 150.914062 62.4375 152.515625 61.863281 C 154.113281 61.289062 155.726562 60.757812 157.355469 60.265625 C 158.980469 59.769531 160.617188 59.316406 162.265625 58.90625 C 163.914062 58.492188 165.570312 58.121094 167.238281 57.789062 C 168.90625 57.457031 170.578125 57.167969 172.257812 56.917969 C 173.941406 56.667969 175.625 56.460938 177.316406 56.292969 C 179.007812 56.125 180.703125 56 182.398438 55.917969 C 184.097656 55.835938 185.796875 55.792969 187.496094 55.792969 C 189.195312 55.792969 190.894531 55.835938 192.589844 55.917969 C 194.289062 56 195.980469 56.125 197.671875 56.292969 C 199.363281 56.460938 201.050781 56.667969 202.730469 56.917969 C 204.410156 57.167969 206.085938 57.457031 207.753906 57.789062 C 209.417969 58.121094 211.078125 58.492188 212.726562 58.90625 C 214.371094 59.316406 216.011719 59.769531 217.636719 60.265625 C 219.261719 60.757812 220.875 61.289062 222.476562 61.863281 C 224.074219 62.4375 225.660156 63.046875 227.230469 63.695312 C 228.800781 64.347656 230.355469 65.035156 231.890625 65.761719 C 233.425781 66.488281 234.941406 67.253906 236.441406 68.054688 C 237.941406 68.855469 239.417969 69.691406 240.875 70.566406 C 242.332031 71.441406 243.769531 72.347656 245.183594 73.292969 C 246.59375 74.238281 247.984375 75.214844 249.347656 76.226562 C 250.714844 77.238281 252.054688 78.285156 253.367188 79.363281 C 254.679688 80.441406 255.964844 81.550781 257.226562 82.691406 C 258.484375 83.832031 259.714844 85.003906 260.917969 86.207031 C 262.117188 87.40625 263.289062 88.636719 264.429688 89.898438 C 265.570312 91.15625 266.683594 92.441406 267.761719 93.753906 C 268.835938 95.070312 269.882812 96.410156 270.894531 97.773438 C 271.90625 99.136719 272.886719 100.527344 273.828125 101.941406 C 274.773438 103.351562 275.683594 104.789062 276.554688 106.246094 C 277.429688 107.703125 278.265625 109.183594 279.070312 110.679688 C 279.871094 112.179688 280.632812 113.695312 281.359375 115.234375 C 282.085938 116.769531 282.773438 118.320312 283.425781 119.890625 C 284.074219 121.460938 284.6875 123.046875 285.257812 124.648438 C 285.832031 126.246094 286.363281 127.859375 286.859375 129.484375 C 287.351562 131.113281 287.804688 132.75 288.21875 134.398438 C 288.628906 136.046875 289.003906 137.703125 289.332031 139.371094 C 289.664062 141.035156 289.957031 142.710938 290.207031 144.390625 C 290.453125 146.074219 290.664062 147.757812 290.828125 149.449219 C 290.996094 151.140625 291.121094 152.835938 291.203125 154.53125 C 291.289062 156.230469 291.328125 157.929688 291.328125 159.628906 Z M 291.328125 159.628906 "/></g><path style=" stroke:none;fill-rule:nonzero;fill:#cbd3ff;fill-opacity:1;" d="M 285.308594 159.628906 C 285.308594 161.226562 285.269531 162.828125 285.191406 164.425781 C 285.113281 166.027344 284.996094 167.621094 284.839844 169.214844 C 284.683594 170.808594 284.484375 172.394531 284.25 173.980469 C 284.015625 175.5625 283.742188 177.140625 283.429688 178.710938 C 283.117188 180.28125 282.765625 181.839844 282.378906 183.394531 C 281.988281 184.945312 281.5625 186.488281 281.097656 188.019531 C 280.632812 189.554688 280.132812 191.074219 279.59375 192.578125 C 279.050781 194.085938 278.476562 195.582031 277.863281 197.058594 C 277.25 198.539062 276.601562 200 275.917969 201.449219 C 275.234375 202.894531 274.515625 204.324219 273.761719 205.738281 C 273.003906 207.148438 272.214844 208.539062 271.394531 209.914062 C 270.570312 211.289062 269.714844 212.640625 268.824219 213.96875 C 267.933594 215.300781 267.015625 216.609375 266.058594 217.894531 C 265.105469 219.179688 264.121094 220.441406 263.105469 221.679688 C 262.089844 222.917969 261.046875 224.128906 259.972656 225.316406 C 258.894531 226.5 257.792969 227.660156 256.660156 228.792969 C 255.527344 229.925781 254.371094 231.027344 253.183594 232.101562 C 251.996094 233.179688 250.785156 234.222656 249.546875 235.238281 C 248.308594 236.253906 247.050781 237.238281 245.761719 238.191406 C 244.476562 239.144531 243.167969 240.066406 241.839844 240.957031 C 240.507812 241.847656 239.15625 242.703125 237.78125 243.527344 C 236.410156 244.347656 235.015625 245.136719 233.605469 245.890625 C 232.191406 246.648438 230.761719 247.367188 229.316406 248.050781 C 227.867188 248.734375 226.40625 249.382812 224.925781 249.996094 C 223.449219 250.609375 221.953125 251.183594 220.449219 251.722656 C 218.941406 252.261719 217.421875 252.765625 215.890625 253.230469 C 214.355469 253.695312 212.816406 254.121094 211.261719 254.511719 C 209.710938 254.898438 208.148438 255.25 206.578125 255.5625 C 205.007812 255.875 203.429688 256.148438 201.847656 256.382812 C 200.265625 256.617188 198.675781 256.8125 197.082031 256.972656 C 195.488281 257.128906 193.894531 257.246094 192.292969 257.324219 C 190.695312 257.402344 189.097656 257.441406 187.496094 257.441406 C 185.894531 257.441406 184.292969 257.402344 182.695312 257.324219 C 181.097656 257.246094 179.5 257.128906 177.90625 256.972656 C 176.3125 256.8125 174.726562 256.617188 173.144531 256.382812 C 171.558594 256.148438 169.980469 255.875 168.414062 255.5625 C 166.84375 255.25 165.28125 254.898438 163.726562 254.511719 C 162.175781 254.121094 160.632812 253.695312 159.101562 253.230469 C 157.570312 252.765625 156.050781 252.261719 154.542969 251.722656 C 153.035156 251.183594 151.542969 250.609375 150.0625 249.996094 C 148.585938 249.382812 147.121094 248.734375 145.675781 248.050781 C 144.226562 247.367188 142.796875 246.648438 141.386719 245.890625 C 139.972656 245.136719 138.582031 244.347656 137.207031 243.527344 C 135.835938 242.703125 134.484375 241.847656 133.152344 240.957031 C 131.820312 240.066406 130.511719 239.144531 129.226562 238.191406 C 127.941406 237.238281 126.679688 236.253906 125.441406 235.238281 C 124.203125 234.222656 122.992188 233.179688 121.808594 232.101562 C 120.621094 231.027344 119.460938 229.925781 118.328125 228.792969 C 117.199219 227.660156 116.09375 226.5 115.019531 225.316406 C 113.945312 224.128906 112.898438 222.917969 111.882812 221.679688 C 110.867188 220.441406 109.882812 219.179688 108.929688 217.894531 C 107.976562 216.609375 107.054688 215.300781 106.164062 213.96875 C 105.277344 212.640625 104.417969 211.289062 103.597656 209.914062 C 102.773438 208.539062 101.984375 207.148438 101.230469 205.738281 C 100.476562 204.324219 99.757812 202.894531 99.070312 201.449219 C 98.386719 200 97.738281 198.539062 97.125 197.058594 C 96.511719 195.582031 95.9375 194.085938 95.398438 192.578125 C 94.859375 191.074219 94.355469 189.554688 93.890625 188.019531 C 93.425781 186.488281 93 184.945312 92.613281 183.394531 C 92.222656 181.839844 91.871094 180.28125 91.558594 178.710938 C 91.246094 177.140625 90.972656 175.5625 90.738281 173.980469 C 90.503906 172.394531 90.308594 170.808594 90.152344 169.214844 C 89.996094 167.621094 89.875 166.027344 89.796875 164.425781 C 89.71875 162.828125 89.679688 161.226562 89.679688 159.628906 C 89.679688 158.027344 89.71875 156.425781 89.796875 154.828125 C 89.875 153.230469 89.996094 151.632812 90.152344 150.039062 C 90.308594 148.445312 90.503906 146.859375 90.738281 145.273438 C 90.972656 143.691406 91.246094 142.113281 91.558594 140.542969 C 91.871094 138.972656 92.222656 137.414062 92.613281 135.859375 C 93 134.308594 93.425781 132.765625 93.890625 131.234375 C 94.355469 129.703125 94.859375 128.183594 95.398438 126.675781 C 95.9375 125.167969 96.511719 123.675781 97.125 122.195312 C 97.738281 120.714844 98.386719 119.253906 99.070312 117.804688 C 99.757812 116.359375 100.476562 114.929688 101.230469 113.519531 C 101.984375 112.105469 102.773438 110.714844 103.597656 109.339844 C 104.417969 107.96875 105.277344 106.617188 106.164062 105.285156 C 107.054688 103.953125 107.976562 102.644531 108.929688 101.359375 C 109.882812 100.074219 110.867188 98.8125 111.882812 97.574219 C 112.898438 96.335938 113.945312 95.125 115.019531 93.9375 C 116.09375 92.753906 117.199219 91.59375 118.328125 90.460938 C 119.460938 89.328125 120.621094 88.226562 121.808594 87.152344 C 122.992188 86.078125 124.203125 85.03125 125.441406 84.015625 C 126.679688 83 127.941406 82.015625 129.226562 81.0625 C 130.511719 80.109375 131.820312 79.1875 133.152344 78.296875 C 134.484375 77.40625 135.835938 76.550781 137.207031 75.730469 C 138.582031 74.90625 139.972656 74.117188 141.386719 73.363281 C 142.796875 72.609375 144.226562 71.886719 145.675781 71.203125 C 147.121094 70.519531 148.585938 69.871094 150.0625 69.257812 C 151.542969 68.644531 153.035156 68.070312 154.542969 67.53125 C 156.050781 66.992188 157.570312 66.488281 159.101562 66.023438 C 160.632812 65.558594 162.175781 65.132812 163.726562 64.742188 C 165.28125 64.355469 166.84375 64.003906 168.414062 63.691406 C 169.980469 63.378906 171.558594 63.105469 173.144531 62.871094 C 174.726562 62.636719 176.3125 62.441406 177.90625 62.285156 C 179.5 62.125 181.097656 62.007812 182.695312 61.929688 C 184.292969 61.851562 185.894531 61.8125 187.496094 61.8125 C 189.097656 61.8125 190.695312 61.851562 192.292969 61.929688 C 193.894531 62.007812 195.488281 62.125 197.082031 62.285156 C 198.675781 62.441406 200.265625 62.636719 201.847656 62.871094 C 203.429688 63.105469 205.007812 63.378906 206.578125 63.691406 C 208.148438 64.003906 209.710938 64.355469 211.261719 64.742188 C 212.816406 65.132812 214.355469 65.558594 215.890625 66.023438 C 217.421875 66.488281 218.941406 66.992188 220.449219 67.53125 C 221.953125 68.070312 223.449219 68.644531 224.925781 69.257812 C 226.40625 69.871094 227.867188 70.519531 229.316406 71.203125 C 230.761719 71.886719 232.191406 72.609375 233.605469 73.363281 C 235.015625 74.117188 236.410156 74.90625 237.78125 75.730469 C 239.15625 76.550781 240.507812 77.40625 241.839844 78.296875 C 243.167969 79.1875 244.476562 80.109375 245.761719 81.0625 C 247.050781 82.015625 248.308594 83 249.546875 84.015625 C 250.785156 85.03125 251.996094 86.078125 253.183594 87.152344 C 254.371094 88.226562 255.527344 89.328125 256.660156 90.460938 C 257.792969 91.59375 258.894531 92.753906 259.972656 93.9375 C 261.046875 95.125 262.089844 96.335938 263.105469 97.574219 C 264.121094 98.8125 265.105469 100.074219 266.058594 101.359375 C 267.015625 102.644531 267.933594 103.953125 268.824219 105.285156 C 269.714844 106.617188 270.570312 107.96875 271.394531 109.339844 C 272.214844 110.714844 273.003906 112.105469 273.761719 113.519531 C 274.515625 114.929688 275.234375 116.359375 275.917969 117.804688 C 276.601562 119.253906 277.25 120.714844 277.863281 122.195312 C 278.476562 123.675781 279.050781 125.167969 279.59375 126.675781 C 280.132812 128.183594 280.632812 129.703125 281.097656 131.234375 C 281.5625 132.765625 281.988281 134.308594 282.378906 135.859375 C 282.765625 137.414062 283.117188 138.972656 283.429688 140.542969 C 283.742188 142.113281 284.015625 143.691406 284.25 145.273438 C 284.484375 146.859375 284.683594 148.445312 284.839844 150.039062 C 284.996094 151.632812 285.113281 153.230469 285.191406 154.828125 C 285.269531 156.425781 285.308594 158.027344 285.308594 159.628906 Z M 285.308594 159.628906 "/><path style=" stroke:none;fill-rule:nonzero;fill:#6366f1;fill-opacity:1;" d="M 270.261719 159.628906 C 270.261719 160.980469 270.226562 162.335938 270.160156 163.6875 C 270.09375 165.042969 269.996094 166.390625 269.863281 167.738281 C 269.730469 169.085938 269.5625 170.433594 269.367188 171.773438 C 269.167969 173.113281 268.933594 174.445312 268.671875 175.773438 C 268.40625 177.101562 268.109375 178.425781 267.78125 179.738281 C 267.453125 181.050781 267.089844 182.355469 266.699219 183.652344 C 266.304688 184.949219 265.878906 186.234375 265.421875 187.511719 C 264.964844 188.785156 264.480469 190.050781 263.960938 191.300781 C 263.441406 192.550781 262.894531 193.789062 262.316406 195.015625 C 261.734375 196.238281 261.125 197.449219 260.488281 198.644531 C 259.851562 199.835938 259.183594 201.015625 258.484375 202.175781 C 257.789062 203.339844 257.066406 204.484375 256.3125 205.609375 C 255.558594 206.734375 254.78125 207.84375 253.972656 208.929688 C 253.167969 210.019531 252.332031 211.085938 251.472656 212.132812 C 250.613281 213.179688 249.730469 214.207031 248.820312 215.210938 C 247.910156 216.214844 246.976562 217.195312 246.019531 218.152344 C 245.0625 219.109375 244.082031 220.042969 243.078125 220.953125 C 242.074219 221.863281 241.046875 222.746094 240 223.605469 C 238.953125 224.464844 237.886719 225.300781 236.796875 226.105469 C 235.710938 226.914062 234.605469 227.691406 233.476562 228.445312 C 232.351562 229.199219 231.207031 229.921875 230.046875 230.617188 C 228.882812 231.316406 227.707031 231.980469 226.511719 232.621094 C 225.316406 233.257812 224.105469 233.867188 222.882812 234.445312 C 221.65625 235.027344 220.417969 235.574219 219.167969 236.09375 C 217.917969 236.613281 216.652344 237.097656 215.378906 237.554688 C 214.101562 238.011719 212.816406 238.4375 211.519531 238.828125 C 210.226562 239.222656 208.917969 239.585938 207.605469 239.914062 C 206.292969 240.242188 204.96875 240.539062 203.640625 240.804688 C 202.3125 241.066406 200.980469 241.300781 199.640625 241.496094 C 198.300781 241.695312 196.957031 241.863281 195.609375 241.996094 C 194.257812 242.128906 192.910156 242.226562 191.554688 242.292969 C 190.203125 242.359375 188.847656 242.394531 187.496094 242.394531 C 186.140625 242.394531 184.785156 242.359375 183.433594 242.292969 C 182.082031 242.226562 180.730469 242.128906 179.382812 241.996094 C 178.035156 241.863281 176.691406 241.695312 175.351562 241.496094 C 174.011719 241.300781 172.675781 241.066406 171.347656 240.804688 C 170.019531 240.539062 168.699219 240.242188 167.382812 239.914062 C 166.070312 239.585938 164.765625 239.222656 163.46875 238.828125 C 162.171875 238.4375 160.886719 238.011719 159.613281 237.554688 C 158.335938 237.097656 157.074219 236.613281 155.820312 236.09375 C 154.570312 235.574219 153.332031 235.027344 152.109375 234.445312 C 150.882812 233.867188 149.675781 233.257812 148.480469 232.621094 C 147.285156 231.980469 146.105469 231.316406 144.945312 230.617188 C 143.78125 229.921875 142.640625 229.199219 141.511719 228.445312 C 140.386719 227.691406 139.277344 226.914062 138.191406 226.105469 C 137.101562 225.300781 136.035156 224.464844 134.988281 223.605469 C 133.941406 222.746094 132.917969 221.863281 131.914062 220.953125 C 130.910156 220.042969 129.929688 219.109375 128.96875 218.152344 C 128.011719 217.195312 127.078125 216.214844 126.167969 215.210938 C 125.257812 214.207031 124.375 213.179688 123.515625 212.132812 C 122.65625 211.085938 121.824219 210.019531 121.015625 208.929688 C 120.210938 207.84375 119.429688 206.734375 118.675781 205.609375 C 117.925781 204.484375 117.199219 203.339844 116.503906 202.175781 C 115.808594 201.015625 115.140625 199.835938 114.5 198.644531 C 113.863281 197.449219 113.253906 196.238281 112.675781 195.015625 C 112.097656 193.789062 111.546875 192.550781 111.027344 191.300781 C 110.511719 190.050781 110.023438 188.785156 109.566406 187.511719 C 109.109375 186.234375 108.6875 184.949219 108.292969 183.652344 C 107.898438 182.355469 107.539062 181.050781 107.210938 179.738281 C 106.878906 178.425781 106.582031 177.101562 106.320312 175.773438 C 106.054688 174.445312 105.824219 173.113281 105.625 171.773438 C 105.425781 170.433594 105.261719 169.085938 105.128906 167.738281 C 104.996094 166.390625 104.894531 165.042969 104.828125 163.6875 C 104.761719 162.335938 104.730469 160.980469 104.730469 159.628906 C 104.730469 158.273438 104.761719 156.917969 104.828125 155.566406 C 104.894531 154.214844 104.996094 152.863281 105.128906 151.515625 C 105.261719 150.167969 105.425781 148.824219 105.625 147.484375 C 105.824219 146.144531 106.054688 144.808594 106.320312 143.480469 C 106.582031 142.152344 106.878906 140.832031 107.210938 139.515625 C 107.539062 138.203125 107.898438 136.898438 108.292969 135.601562 C 108.6875 134.304688 109.109375 133.019531 109.566406 131.746094 C 110.023438 130.46875 110.511719 129.207031 111.027344 127.953125 C 111.546875 126.703125 112.097656 125.464844 112.675781 124.238281 C 113.253906 123.015625 113.863281 121.804688 114.5 120.613281 C 115.140625 119.417969 115.808594 118.238281 116.503906 117.078125 C 117.199219 115.914062 117.925781 114.769531 118.675781 113.644531 C 119.429688 112.519531 120.210938 111.410156 121.015625 110.324219 C 121.824219 109.234375 122.65625 108.167969 123.515625 107.121094 C 124.375 106.074219 125.257812 105.046875 126.167969 104.046875 C 127.078125 103.042969 128.011719 102.0625 128.96875 101.101562 C 129.929688 100.144531 130.910156 99.210938 131.914062 98.300781 C 132.917969 97.390625 133.941406 96.507812 134.988281 95.648438 C 136.035156 94.789062 137.101562 93.957031 138.191406 93.148438 C 139.277344 92.34375 140.386719 91.5625 141.511719 90.808594 C 142.640625 90.058594 143.78125 89.332031 144.945312 88.636719 C 146.105469 87.941406 147.285156 87.273438 148.480469 86.632812 C 149.675781 85.996094 150.882812 85.386719 152.109375 84.808594 C 153.332031 84.226562 154.570312 83.679688 155.820312 83.160156 C 157.074219 82.644531 158.335938 82.15625 159.613281 81.699219 C 160.886719 81.242188 162.171875 80.816406 163.46875 80.425781 C 164.765625 80.03125 166.070312 79.671875 167.382812 79.339844 C 168.699219 79.011719 170.019531 78.714844 171.347656 78.453125 C 172.675781 78.1875 174.011719 77.957031 175.351562 77.757812 C 176.691406 77.558594 178.035156 77.390625 179.382812 77.257812 C 180.730469 77.125 182.082031 77.027344 183.433594 76.960938 C 184.785156 76.894531 186.140625 76.859375 187.496094 76.859375 C 188.847656 76.859375 190.203125 76.894531 191.554688 76.960938 C 192.910156 77.027344 194.257812 77.125 195.609375 77.257812 C 196.957031 77.390625 198.300781 77.558594 199.640625 77.757812 C 200.980469 77.957031 202.3125 78.1875 203.640625 78.453125 C 204.96875 78.714844 206.292969 79.011719 207.605469 79.339844 C 208.917969 79.671875 210.222656 80.03125 211.519531 80.425781 C 212.816406 80.816406 214.101562 81.242188 215.378906 81.699219 C 216.652344 82.15625 217.917969 82.644531 219.167969 83.160156 C 220.417969 83.679688 221.65625 84.226562 222.882812 84.808594 C 224.105469 85.386719 225.316406 85.996094 226.511719 86.632812 C 227.707031 87.273438 228.882812 87.941406 230.046875 88.636719 C 231.207031 89.332031 232.351562 90.058594 233.476562 90.808594 C 234.605469 91.5625 235.710938 92.34375 236.796875 93.148438 C 237.886719 93.957031 238.953125 94.789062 240 95.648438 C 241.046875 96.507812 242.074219 97.390625 243.078125 98.300781 C 244.082031 99.210938 245.0625 100.144531 246.019531 101.101562 C 246.976562 102.0625 247.910156 103.042969 248.820312 104.046875 C 249.730469 105.046875 250.613281 106.074219 251.472656 107.121094 C 252.332031 108.167969 253.167969 109.234375 253.972656 110.324219 C 254.78125 111.410156 255.558594 112.519531 256.3125 113.644531 C 257.066406 114.769531 257.789062 115.914062 258.484375 117.078125 C 259.183594 118.238281 259.851562 119.417969 260.488281 120.613281 C 261.125 121.804688 261.734375 123.015625 262.316406 124.238281 C 262.894531 125.464844 263.441406 126.703125 263.960938 127.953125 C 264.480469 129.207031 264.964844 130.46875 265.421875 131.746094 C 265.878906 133.019531 266.304688 134.304688 266.699219 135.601562 C 267.089844 136.898438 267.453125 138.203125 267.78125 139.515625 C 268.109375 140.832031 268.40625 142.152344 268.671875 143.480469 C 268.933594 144.808594 269.167969 146.144531 269.367188 147.484375 C 269.5625 148.824219 269.730469 150.167969 269.863281 151.515625 C 269.996094 152.863281 270.09375 154.214844 270.160156 155.566406 C 270.226562 156.917969 270.261719 158.273438 270.261719 159.628906 Z M 270.261719 159.628906 "/><g clip-rule="nonzero" clip-path="url(#dcdd062924)"><path style=" stroke:none;fill-rule:nonzero;fill:#ffffff;fill-opacity:1;" d="M 146.171875 115.964844 C 146.171875 117.207031 145.332031 118.359375 144.066406 118.683594 C 139.558594 119.863281 134.957031 120.574219 130.34375 120.78125 L 138.019531 132.644531 C 138.859375 133.945312 138.503906 135.683594 137.191406 136.546875 C 135.886719 137.382812 134.144531 137.011719 133.304688 135.710938 L 122.835938 119.535156 C 122.269531 118.644531 122.234375 117.507812 122.746094 116.621094 C 123.257812 115.703125 124.242188 115.15625 125.289062 115.183594 C 131.109375 115.386719 136.953125 114.730469 142.644531 113.238281 C 144.148438 112.839844 145.6875 113.746094 146.074219 115.25 C 146.136719 115.484375 146.171875 115.730469 146.171875 115.964844 "/></g><g clip-rule="nonzero" clip-path="url(#a5ad20aba2)"><path style=" stroke:none;fill-rule:nonzero;fill:#ffffff;fill-opacity:1;" d="M 193.449219 239.269531 C 193.449219 240.777344 192.253906 242.035156 190.738281 242.089844 C 189.1875 242.144531 187.882812 240.925781 187.828125 239.378906 C 186.851562 213.253906 182.1875 191.359375 173.574219 172.429688 C 163.492188 150.328125 147.597656 132.671875 128.828125 122.75 C 127.433594 122.027344 126.929688 120.34375 127.652344 118.945312 C 128.378906 117.5625 130.078125 117.042969 131.453125 117.769531 C 151.316406 128.28125 168.09375 146.851562 178.683594 170.105469 C 187.613281 189.703125 192.445312 212.296875 193.445312 239.160156 C 193.445312 239.203125 193.449219 239.242188 193.449219 239.269531 "/></g><g clip-rule="nonzero" clip-path="url(#5081c987ca)"><path style=" stroke:none;fill-rule:nonzero;fill:#ffffff;fill-opacity:1;" d="M 253.941406 120.257812 C 253.941406 121.273438 253.390625 122.242188 252.433594 122.75 C 233.664062 132.671875 217.769531 150.328125 207.691406 172.429688 C 199.070312 191.371094 194.40625 213.269531 193.445312 239.378906 C 193.390625 240.925781 192.085938 242.144531 190.53125 242.089844 C 189.015625 242.035156 187.820312 240.777344 187.820312 239.269531 C 187.820312 239.242188 187.828125 239.203125 187.828125 239.160156 C 188.816406 212.308594 193.644531 189.714844 202.578125 170.105469 C 213.171875 146.851562 229.945312 128.28125 249.8125 117.769531 C 251.183594 117.042969 252.886719 117.5625 253.609375 118.945312 C 253.828125 119.371094 253.941406 119.808594 253.941406 120.257812 "/></g><g clip-rule="nonzero" clip-path="url(#9d0f9b0df0)"><path style=" stroke:none;fill-rule:nonzero;fill:#ffffff;fill-opacity:1;" d="M 258.660156 117.578125 C 258.660156 118.097656 258.511719 118.617188 258.222656 119.082031 C 255.09375 124.039062 252.695312 129.417969 251.089844 135.054688 C 250.664062 136.558594 249.109375 137.421875 247.609375 136.996094 C 246.113281 136.558594 245.253906 134.917969 245.675781 133.519531 C 246.957031 129.03125 248.683594 124.722656 250.84375 120.613281 L 236.738281 121.230469 C 235.179688 121.285156 233.871094 120.082031 233.808594 118.535156 C 233.761719 117.054688 234.941406 115.660156 236.492188 115.59375 L 255.722656 114.757812 C 256.769531 114.714844 257.75 115.25 258.277344 116.167969 C 258.53125 116.605469 258.660156 117.085938 258.660156 117.578125 "/></g></g></svg>