<svg xmlns="http://www.w3.org/2000/svg" xmlns:xlink="http://www.w3.org/1999/xlink" width="500" zoomAndPan="magnify" viewBox="0 0 375 374.999991" height="500" preserveAspectRatio="xMidYMid meet" version="1.2"><defs><clipPath id="4038d6394e"><path d="M 49.558594 49.558594 L 325.558594 49.558594 L 325.558594 325.558594 L 49.558594 325.558594 Z M 49.558594 49.558594 "/></clipPath><clipPath id="924d723790"><path d="M 97.953125 126.546875 L 129.195312 126.546875 L 129.195312 158 L 97.953125 158 Z M 97.953125 126.546875 "/></clipPath><clipPath id="d67848cd26"><path d="M 244.054688 128.386719 L 276.910156 128.386719 L 276.910156 158.3125 L 244.054688 158.3125 Z M 244.054688 128.386719 "/></clipPath></defs><g id="761714ef49"><g clip-rule="nonzero" clip-path="url(#4038d6394e)"><path style=" stroke:none;fill-rule:nonzero;fill:#9ba6fb;fill-opacity:1;" d="M 325.429688 187.496094 C 325.429688 189.75 325.375 192.007812 325.265625 194.261719 C 325.152344 196.515625 324.988281 198.769531 324.765625 201.015625 C 324.542969 203.261719 324.269531 205.5 323.9375 207.734375 C 323.605469 209.964844 323.21875 212.191406 322.78125 214.402344 C 322.339844 216.617188 321.84375 218.820312 321.296875 221.011719 C 320.746094 223.199219 320.144531 225.375 319.492188 227.535156 C 318.835938 229.695312 318.128906 231.839844 317.367188 233.964844 C 316.605469 236.089844 315.792969 238.195312 314.929688 240.28125 C 314.066406 242.367188 313.152344 244.429688 312.1875 246.46875 C 311.222656 248.511719 310.207031 250.527344 309.140625 252.515625 C 308.078125 254.507812 306.964844 256.472656 305.804688 258.40625 C 304.644531 260.34375 303.4375 262.25 302.183594 264.128906 C 300.929688 266.003906 299.628906 267.847656 298.285156 269.664062 C 296.941406 271.476562 295.550781 273.253906 294.121094 275 C 292.6875 276.746094 291.214844 278.453125 289.699219 280.125 C 288.183594 281.796875 286.625 283.433594 285.03125 285.03125 C 283.433594 286.625 281.796875 288.183594 280.125 289.699219 C 278.453125 291.214844 276.746094 292.6875 275 294.121094 C 273.253906 295.550781 271.476562 296.941406 269.664062 298.285156 C 267.847656 299.628906 266.003906 300.929688 264.128906 302.183594 C 262.25 303.4375 260.34375 304.644531 258.40625 305.804688 C 256.472656 306.964844 254.507812 308.078125 252.515625 309.140625 C 250.527344 310.207031 248.511719 311.222656 246.46875 312.1875 C 244.429688 313.152344 242.367188 314.066406 240.28125 314.929688 C 238.195312 315.792969 236.089844 316.605469 233.964844 317.367188 C 231.839844 318.128906 229.695312 318.835938 227.535156 319.492188 C 225.375 320.144531 223.199219 320.746094 221.011719 321.296875 C 218.820312 321.84375 216.617188 322.339844 214.402344 322.78125 C 212.191406 323.21875 209.964844 323.605469 207.734375 323.9375 C 205.5 324.269531 203.261719 324.542969 201.015625 324.765625 C 198.769531 324.988281 196.515625 325.152344 194.261719 325.261719 C 192.007812 325.375 189.75 325.429688 187.496094 325.429688 C 185.238281 325.429688 182.980469 325.375 180.726562 325.261719 C 178.472656 325.152344 176.222656 324.988281 173.972656 324.765625 C 171.726562 324.542969 169.488281 324.269531 167.253906 323.9375 C 165.023438 323.605469 162.796875 323.21875 160.585938 322.78125 C 158.371094 322.339844 156.167969 321.84375 153.980469 321.296875 C 151.789062 320.746094 149.613281 320.144531 147.453125 319.492188 C 145.292969 318.835938 143.152344 318.128906 141.023438 317.367188 C 138.898438 316.605469 136.792969 315.792969 134.707031 314.929688 C 132.625 314.066406 130.558594 313.152344 128.519531 312.1875 C 126.480469 311.222656 124.460938 310.207031 122.472656 309.140625 C 120.480469 308.078125 118.515625 306.964844 116.582031 305.804688 C 114.644531 304.644531 112.738281 303.4375 110.863281 302.183594 C 108.984375 300.929688 107.140625 299.628906 105.328125 298.285156 C 103.511719 296.941406 101.734375 295.550781 99.988281 294.121094 C 98.242188 292.6875 96.535156 291.214844 94.863281 289.699219 C 93.191406 288.183594 91.554688 286.625 89.960938 285.03125 C 88.363281 283.433594 86.808594 281.796875 85.289062 280.125 C 83.773438 278.453125 82.300781 276.746094 80.867188 275 C 79.4375 273.253906 78.046875 271.476562 76.703125 269.664062 C 75.359375 267.847656 74.058594 266.003906 72.804688 264.128906 C 71.550781 262.25 70.34375 260.34375 69.183594 258.40625 C 68.023438 256.472656 66.910156 254.507812 65.847656 252.515625 C 64.78125 250.527344 63.765625 248.511719 62.800781 246.46875 C 61.835938 244.429688 60.921875 242.367188 60.058594 240.28125 C 59.195312 238.195312 58.382812 236.089844 57.621094 233.964844 C 56.863281 231.839844 56.152344 229.695312 55.5 227.535156 C 54.84375 225.375 54.242188 223.199219 53.691406 221.011719 C 53.144531 218.820312 52.648438 216.617188 52.210938 214.402344 C 51.769531 212.191406 51.382812 209.964844 51.050781 207.734375 C 50.71875 205.5 50.445312 203.261719 50.222656 201.015625 C 50 198.769531 49.835938 196.515625 49.726562 194.261719 C 49.613281 192.007812 49.558594 189.75 49.558594 187.496094 C 49.558594 185.238281 49.613281 182.980469 49.726562 180.726562 C 49.835938 178.472656 50 176.222656 50.222656 173.972656 C 50.445312 171.726562 50.71875 169.488281 51.050781 167.253906 C 51.382812 165.023438 51.769531 162.796875 52.210938 160.585938 C 52.648438 158.371094 53.144531 156.167969 53.691406 153.980469 C 54.242188 151.789062 54.84375 149.613281 55.5 147.453125 C 56.152344 145.292969 56.863281 143.152344 57.621094 141.023438 C 58.382812 138.898438 59.195312 136.792969 60.058594 134.707031 C 60.921875 132.625 61.835938 130.558594 62.800781 128.519531 C 63.765625 126.480469 64.78125 124.460938 65.847656 122.472656 C 66.910156 120.480469 68.023438 118.515625 69.183594 116.582031 C 70.34375 114.644531 71.550781 112.738281 72.804688 110.863281 C 74.058594 108.984375 75.359375 107.140625 76.703125 105.328125 C 78.046875 103.511719 79.4375 101.734375 80.867188 99.988281 C 82.300781 98.242188 83.773438 96.535156 85.289062 94.863281 C 86.808594 93.191406 88.363281 91.554688 89.960938 89.960938 C 91.554688 88.363281 93.191406 86.808594 94.863281 85.289062 C 96.535156 83.773438 98.242188 82.300781 99.988281 80.867188 C 101.734375 79.4375 103.511719 78.046875 105.328125 76.703125 C 107.140625 75.359375 108.984375 74.058594 110.863281 72.804688 C 112.738281 71.550781 114.644531 70.34375 116.582031 69.183594 C 118.515625 68.023438 120.480469 66.910156 122.472656 65.847656 C 124.460938 64.78125 126.480469 63.765625 128.519531 62.800781 C 130.558594 61.835938 132.625 60.921875 134.707031 60.058594 C 136.792969 59.195312 138.898438 58.382812 141.023438 57.621094 C 143.152344 56.863281 145.292969 56.152344 147.453125 55.5 C 149.613281 54.84375 151.789062 54.242188 153.980469 53.691406 C 156.167969 53.144531 158.371094 52.648438 160.585938 52.210938 C 162.796875 51.769531 165.023438 51.382812 167.253906 51.050781 C 169.488281 50.71875 171.726562 50.445312 173.972656 50.222656 C 176.222656 50 178.472656 49.835938 180.726562 49.726562 C 182.980469 49.613281 185.238281 49.558594 187.496094 49.558594 C 189.75 49.558594 192.007812 49.613281 194.261719 49.726562 C 196.515625 49.835938 198.769531 50 201.015625 50.222656 C 203.261719 50.445312 205.5 50.71875 207.734375 51.050781 C 209.964844 51.382812 212.191406 51.769531 214.402344 52.210938 C 216.617188 52.648438 218.820312 53.144531 221.011719 53.691406 C 223.199219 54.242188 225.375 54.84375 227.535156 55.5 C 229.695312 56.152344 231.839844 56.863281 233.964844 57.621094 C 236.089844 58.382812 238.195312 59.195312 240.28125 60.058594 C 242.367188 60.921875 244.429688 61.835938 246.46875 62.800781 C 248.511719 63.765625 250.527344 64.78125 252.515625 65.847656 C 254.507812 66.910156 256.472656 68.023438 258.40625 69.183594 C 260.34375 70.34375 262.25 71.550781 264.128906 72.804688 C 266.003906 74.058594 267.847656 75.359375 269.664062 76.703125 C 271.476562 78.046875 273.253906 79.4375 275 80.867188 C 276.746094 82.300781 278.453125 83.773438 280.125 85.289062 C 281.796875 86.808594 283.433594 88.363281 285.03125 89.960938 C 286.625 91.554688 288.183594 93.191406 289.699219 94.863281 C 291.214844 96.535156 292.6875 98.242188 294.121094 99.988281 C 295.550781 101.734375 296.941406 103.511719 298.285156 105.328125 C 299.628906 107.140625 300.929688 108.984375 302.183594 110.863281 C 303.4375 112.738281 304.644531 114.644531 305.804688 116.582031 C 306.964844 118.515625 308.078125 120.480469 309.140625 122.472656 C 310.207031 124.460938 311.222656 126.480469 312.1875 128.519531 C 313.152344 130.558594 314.066406 132.625 314.929688 134.707031 C 315.792969 136.792969 316.605469 138.898438 317.367188 141.023438 C 318.128906 143.152344 318.835938 145.292969 319.492188 147.453125 C 320.144531 149.613281 320.746094 151.789062 321.296875 153.980469 C 321.84375 156.167969 322.339844 158.371094 322.78125 160.585938 C 323.21875 162.796875 323.605469 165.023438 323.9375 167.253906 C 324.269531 169.488281 324.542969 171.726562 324.765625 173.972656 C 324.988281 176.222656 325.152344 178.472656 325.265625 180.726562 C 325.375 182.980469 325.429688 185.238281 325.429688 187.496094 Z M 325.429688 187.496094 "/></g><path style=" stroke:none;fill-rule:nonzero;fill:#cbd3ff;fill-opacity:1;" d="M 317.433594 187.496094 C 317.433594 189.621094 317.382812 191.746094 317.277344 193.871094 C 317.171875 195.992188 317.015625 198.113281 316.808594 200.230469 C 316.597656 202.347656 316.339844 204.457031 316.027344 206.558594 C 315.714844 208.664062 315.351562 210.757812 314.9375 212.84375 C 314.523438 214.929688 314.054688 217.003906 313.539062 219.066406 C 313.023438 221.128906 312.457031 223.179688 311.839844 225.214844 C 311.222656 227.25 310.554688 229.265625 309.835938 231.269531 C 309.121094 233.273438 308.355469 235.253906 307.542969 237.21875 C 306.730469 239.183594 305.867188 241.128906 304.957031 243.050781 C 304.046875 244.972656 303.09375 246.871094 302.089844 248.746094 C 301.089844 250.621094 300.039062 252.472656 298.945312 254.296875 C 297.855469 256.121094 296.714844 257.917969 295.535156 259.683594 C 294.351562 261.453125 293.128906 263.191406 291.863281 264.898438 C 290.59375 266.605469 289.289062 268.28125 287.9375 269.925781 C 286.589844 271.570312 285.199219 273.179688 283.773438 274.757812 C 282.34375 276.332031 280.878906 277.871094 279.375 279.375 C 277.871094 280.878906 276.332031 282.34375 274.757812 283.773438 C 273.179688 285.199219 271.570312 286.589844 269.925781 287.9375 C 268.28125 289.289062 266.605469 290.59375 264.898438 291.863281 C 263.191406 293.128906 261.453125 294.351562 259.683594 295.535156 C 257.917969 296.714844 256.121094 297.855469 254.296875 298.945312 C 252.472656 300.039062 250.621094 301.089844 248.746094 302.089844 C 246.871094 303.09375 244.972656 304.046875 243.050781 304.957031 C 241.128906 305.867188 239.183594 306.730469 237.21875 307.542969 C 235.253906 308.355469 233.273438 309.121094 231.269531 309.835938 C 229.265625 310.554688 227.25 311.222656 225.214844 311.839844 C 223.179688 312.457031 221.128906 313.023438 219.066406 313.539062 C 217.003906 314.054688 214.929688 314.523438 212.84375 314.9375 C 210.757812 315.351562 208.664062 315.714844 206.558594 316.027344 C 204.457031 316.339844 202.347656 316.597656 200.230469 316.808594 C 198.113281 317.015625 195.992188 317.171875 193.871094 317.277344 C 191.746094 317.382812 189.621094 317.433594 187.496094 317.433594 C 185.367188 317.433594 183.242188 317.382812 181.117188 317.277344 C 178.996094 317.171875 176.875 317.015625 174.757812 316.808594 C 172.640625 316.597656 170.53125 316.339844 168.429688 316.027344 C 166.324219 315.714844 164.230469 315.351562 162.144531 314.9375 C 160.058594 314.523438 157.984375 314.054688 155.921875 313.539062 C 153.859375 313.023438 151.808594 312.457031 149.773438 311.839844 C 147.738281 311.222656 145.722656 310.554688 143.71875 309.835938 C 141.71875 309.121094 139.734375 308.355469 137.769531 307.542969 C 135.804688 306.730469 133.859375 305.867188 131.9375 304.957031 C 130.015625 304.046875 128.117188 303.09375 126.242188 302.089844 C 124.367188 301.089844 122.515625 300.039062 120.691406 298.945312 C 118.867188 297.855469 117.070312 296.714844 115.304688 295.535156 C 113.535156 294.351562 111.796875 293.128906 110.089844 291.863281 C 108.382812 290.59375 106.707031 289.289062 105.0625 287.9375 C 103.417969 286.589844 101.808594 285.199219 100.230469 283.773438 C 98.65625 282.34375 97.117188 280.878906 95.613281 279.375 C 94.109375 277.871094 92.644531 276.332031 91.214844 274.757812 C 89.789062 273.179688 88.398438 271.570312 87.050781 269.925781 C 85.699219 268.28125 84.394531 266.605469 83.125 264.898438 C 81.859375 263.191406 80.636719 261.453125 79.453125 259.683594 C 78.273438 257.917969 77.136719 256.121094 76.042969 254.296875 C 74.949219 252.472656 73.902344 250.621094 72.898438 248.746094 C 71.894531 246.871094 70.941406 244.972656 70.03125 243.050781 C 69.121094 241.128906 68.261719 239.183594 67.445312 237.21875 C 66.632812 235.253906 65.867188 233.273438 65.152344 231.269531 C 64.433594 229.265625 63.765625 227.25 63.148438 225.214844 C 62.53125 223.179688 61.964844 221.128906 61.449219 219.066406 C 60.933594 217.003906 60.464844 214.929688 60.050781 212.84375 C 59.636719 210.757812 59.273438 208.664062 58.960938 206.558594 C 58.648438 204.457031 58.390625 202.347656 58.179688 200.230469 C 57.972656 198.113281 57.816406 195.992188 57.710938 193.871094 C 57.605469 191.746094 57.554688 189.621094 57.554688 187.496094 C 57.554688 185.367188 57.605469 183.242188 57.710938 181.117188 C 57.816406 178.996094 57.972656 176.875 58.179688 174.757812 C 58.390625 172.640625 58.648438 170.53125 58.960938 168.429688 C 59.273438 166.324219 59.636719 164.230469 60.050781 162.144531 C 60.464844 160.058594 60.933594 157.984375 61.449219 155.921875 C 61.964844 153.859375 62.53125 151.808594 63.148438 149.773438 C 63.765625 147.738281 64.433594 145.722656 65.152344 143.71875 C 65.867188 141.71875 66.632812 139.734375 67.445312 137.769531 C 68.261719 135.804688 69.121094 133.859375 70.03125 131.9375 C 70.941406 130.015625 71.894531 128.117188 72.898438 126.242188 C 73.902344 124.367188 74.949219 122.515625 76.042969 120.691406 C 77.136719 118.867188 78.273438 117.070312 79.453125 115.304688 C 80.636719 113.535156 81.859375 111.796875 83.125 110.089844 C 84.394531 108.382812 85.699219 106.707031 87.050781 105.0625 C 88.398438 103.417969 89.789062 101.808594 91.214844 100.230469 C 92.644531 98.65625 94.109375 97.117188 95.613281 95.613281 C 97.117188 94.109375 98.65625 92.644531 100.230469 91.214844 C 101.808594 89.789062 103.417969 88.398438 105.0625 87.050781 C 106.707031 85.699219 108.382812 84.394531 110.089844 83.125 C 111.796875 81.859375 113.535156 80.636719 115.304688 79.453125 C 117.070312 78.273438 118.867188 77.136719 120.691406 76.042969 C 122.515625 74.949219 124.367188 73.902344 126.242188 72.898438 C 128.117188 71.894531 130.015625 70.941406 131.9375 70.03125 C 133.859375 69.121094 135.804688 68.261719 137.769531 67.445312 C 139.734375 66.632812 141.71875 65.867188 143.71875 65.152344 C 145.722656 64.433594 147.738281 63.765625 149.773438 63.148438 C 151.808594 62.53125 153.859375 61.964844 155.921875 61.449219 C 157.984375 60.933594 160.058594 60.464844 162.144531 60.050781 C 164.230469 59.636719 166.324219 59.273438 168.429688 58.960938 C 170.53125 58.648438 172.640625 58.390625 174.757812 58.179688 C 176.875 57.972656 178.996094 57.816406 181.117188 57.710938 C 183.242188 57.605469 185.367188 57.554688 187.496094 57.554688 C 189.621094 57.554688 191.746094 57.605469 193.871094 57.710938 C 195.992188 57.816406 198.113281 57.972656 200.230469 58.179688 C 202.347656 58.390625 204.457031 58.648438 206.558594 58.960938 C 208.664062 59.273438 210.757812 59.636719 212.84375 60.050781 C 214.929688 60.464844 217.003906 60.933594 219.066406 61.449219 C 221.128906 61.964844 223.179688 62.53125 225.214844 63.148438 C 227.25 63.765625 229.265625 64.433594 231.269531 65.152344 C 233.273438 65.867188 235.253906 66.632812 237.21875 67.445312 C 239.183594 68.261719 241.128906 69.121094 243.050781 70.03125 C 244.972656 70.941406 246.871094 71.894531 248.746094 72.898438 C 250.621094 73.902344 252.472656 74.949219 254.296875 76.042969 C 256.121094 77.136719 257.917969 78.273438 259.683594 79.453125 C 261.453125 80.636719 263.191406 81.859375 264.898438 83.125 C 266.605469 84.394531 268.28125 85.699219 269.925781 87.050781 C 271.570312 88.398438 273.179688 89.789062 274.757812 91.214844 C 276.332031 92.644531 277.871094 94.109375 279.375 95.613281 C 280.878906 97.117188 282.34375 98.65625 283.773438 100.230469 C 285.199219 101.808594 286.589844 103.417969 287.9375 105.0625 C 289.289062 106.707031 290.59375 108.382812 291.863281 110.089844 C 293.128906 111.796875 294.351562 113.535156 295.535156 115.304688 C 296.714844 117.070312 297.855469 118.867188 298.945312 120.691406 C 300.039062 122.515625 301.089844 124.367188 302.089844 126.242188 C 303.09375 128.117188 304.046875 130.015625 304.957031 131.9375 C 305.867188 133.859375 306.730469 135.804688 307.542969 137.769531 C 308.355469 139.734375 309.121094 141.71875 309.835938 143.71875 C 310.554688 145.722656 311.222656 147.738281 311.839844 149.773438 C 312.457031 151.808594 313.023438 153.859375 313.539062 155.921875 C 314.054688 157.984375 314.523438 160.058594 314.9375 162.144531 C 315.351562 164.230469 315.714844 166.324219 316.027344 168.429688 C 316.339844 170.53125 316.597656 172.640625 316.808594 174.757812 C 317.015625 176.875 317.171875 178.996094 317.277344 181.117188 C 317.382812 183.242188 317.433594 185.367188 317.433594 187.496094 Z M 317.433594 187.496094 "/><path style=" stroke:none;fill-rule:nonzero;fill:#6366f1;fill-opacity:1;" d="M 297.441406 187.496094 C 297.441406 189.292969 297.398438 191.09375 297.308594 192.890625 C 297.222656 194.6875 297.089844 196.480469 296.914062 198.269531 C 296.738281 200.0625 296.515625 201.847656 296.253906 203.628906 C 295.988281 205.40625 295.679688 207.179688 295.332031 208.945312 C 294.980469 210.710938 294.585938 212.464844 294.148438 214.210938 C 293.710938 215.957031 293.230469 217.6875 292.707031 219.410156 C 292.1875 221.132812 291.621094 222.839844 291.015625 224.535156 C 290.410156 226.230469 289.761719 227.90625 289.074219 229.570312 C 288.386719 231.230469 287.65625 232.875 286.886719 234.503906 C 286.117188 236.128906 285.308594 237.738281 284.460938 239.324219 C 283.613281 240.910156 282.726562 242.476562 281.800781 244.019531 C 280.875 245.5625 279.914062 247.082031 278.914062 248.578125 C 277.914062 250.074219 276.878906 251.546875 275.804688 252.992188 C 274.734375 254.4375 273.628906 255.855469 272.484375 257.246094 C 271.34375 258.636719 270.167969 259.996094 268.960938 261.332031 C 267.753906 262.664062 266.511719 263.96875 265.238281 265.238281 C 263.96875 266.511719 262.664062 267.753906 261.332031 268.960938 C 259.996094 270.167969 258.636719 271.34375 257.246094 272.484375 C 255.855469 273.628906 254.4375 274.734375 252.992188 275.804688 C 251.546875 276.878906 250.074219 277.914062 248.578125 278.914062 C 247.082031 279.914062 245.5625 280.875 244.019531 281.800781 C 242.476562 282.726562 240.910156 283.613281 239.324219 284.460938 C 237.738281 285.308594 236.128906 286.117188 234.503906 286.886719 C 232.875 287.65625 231.230469 288.386719 229.570312 289.074219 C 227.90625 289.761719 226.230469 290.410156 224.535156 291.015625 C 222.839844 291.621094 221.132812 292.1875 219.410156 292.707031 C 217.6875 293.230469 215.957031 293.710938 214.210938 294.148438 C 212.464844 294.585938 210.710938 294.980469 208.945312 295.332031 C 207.179688 295.679688 205.40625 295.988281 203.628906 296.253906 C 201.847656 296.515625 200.0625 296.738281 198.269531 296.914062 C 196.480469 297.089844 194.6875 297.222656 192.890625 297.308594 C 191.09375 297.398438 189.292969 297.441406 187.496094 297.441406 C 185.695312 297.441406 183.898438 297.398438 182.097656 297.308594 C 180.300781 297.222656 178.507812 297.089844 176.71875 296.914062 C 174.925781 296.738281 173.140625 296.515625 171.363281 296.253906 C 169.582031 295.988281 167.808594 295.679688 166.042969 295.332031 C 164.28125 294.980469 162.523438 294.585938 160.777344 294.148438 C 159.035156 293.710938 157.300781 293.230469 155.578125 292.707031 C 153.855469 292.1875 152.148438 291.621094 150.453125 291.015625 C 148.757812 290.410156 147.082031 289.761719 145.417969 289.074219 C 143.757812 288.386719 142.113281 287.65625 140.484375 286.886719 C 138.859375 286.117188 137.25 285.308594 135.664062 284.460938 C 134.078125 283.613281 132.511719 282.726562 130.96875 281.800781 C 129.425781 280.875 127.90625 279.914062 126.410156 278.914062 C 124.914062 277.914062 123.441406 276.878906 121.996094 275.804688 C 120.550781 274.734375 119.132812 273.628906 117.742188 272.484375 C 116.351562 271.34375 114.992188 270.167969 113.65625 268.960938 C 112.324219 267.753906 111.019531 266.511719 109.75 265.238281 C 108.476562 263.96875 107.234375 262.664062 106.027344 261.332031 C 104.820312 259.996094 103.644531 258.636719 102.503906 257.246094 C 101.363281 255.855469 100.253906 254.4375 99.183594 252.992188 C 98.109375 251.546875 97.074219 250.074219 96.074219 248.578125 C 95.074219 247.082031 94.113281 245.5625 93.1875 244.019531 C 92.261719 242.476562 91.375 240.910156 90.527344 239.324219 C 89.679688 237.738281 88.871094 236.128906 88.101562 234.503906 C 87.332031 232.875 86.605469 231.230469 85.914062 229.570312 C 85.226562 227.90625 84.578125 226.230469 83.972656 224.535156 C 83.367188 222.839844 82.800781 221.132812 82.28125 219.410156 C 81.757812 217.6875 81.277344 215.957031 80.839844 214.210938 C 80.402344 212.464844 80.007812 210.710938 79.660156 208.945312 C 79.308594 207.179688 79 205.40625 78.734375 203.628906 C 78.472656 201.847656 78.25 200.0625 78.074219 198.269531 C 77.898438 196.480469 77.765625 194.6875 77.679688 192.890625 C 77.589844 191.09375 77.546875 189.292969 77.546875 187.496094 C 77.546875 185.695312 77.589844 183.898438 77.679688 182.097656 C 77.765625 180.300781 77.898438 178.507812 78.074219 176.71875 C 78.25 174.925781 78.472656 173.140625 78.734375 171.363281 C 79 169.582031 79.308594 167.808594 79.660156 166.042969 C 80.007812 164.28125 80.402344 162.523438 80.839844 160.777344 C 81.277344 159.035156 81.757812 157.300781 82.28125 155.578125 C 82.800781 153.855469 83.367188 152.148438 83.972656 150.453125 C 84.578125 148.757812 85.226562 147.082031 85.914062 145.417969 C 86.605469 143.757812 87.332031 142.113281 88.101562 140.484375 C 88.871094 138.859375 89.679688 137.25 90.527344 135.664062 C 91.375 134.078125 92.261719 132.511719 93.1875 130.96875 C 94.113281 129.425781 95.074219 127.90625 96.074219 126.410156 C 97.074219 124.914062 98.109375 123.441406 99.183594 121.996094 C 100.253906 120.550781 101.363281 119.132812 102.503906 117.742188 C 103.644531 116.351562 104.820312 114.992188 106.027344 113.65625 C 107.234375 112.324219 108.476562 111.019531 109.75 109.75 C 111.019531 108.476562 112.324219 107.234375 113.65625 106.027344 C 114.992188 104.820312 116.351562 103.644531 117.742188 102.503906 C 119.132812 101.363281 120.550781 100.253906 121.996094 99.183594 C 123.441406 98.109375 124.914062 97.074219 126.410156 96.074219 C 127.90625 95.074219 129.425781 94.113281 130.96875 93.1875 C 132.511719 92.261719 134.078125 91.375 135.664062 90.527344 C 137.25 89.679688 138.859375 88.871094 140.484375 88.101562 C 142.113281 87.332031 143.757812 86.605469 145.417969 85.914062 C 147.082031 85.226562 148.757812 84.578125 150.453125 83.972656 C 152.148438 83.367188 153.855469 82.800781 155.578125 82.28125 C 157.300781 81.757812 159.035156 81.277344 160.777344 80.839844 C 162.523438 80.402344 164.28125 80.007812 166.042969 79.660156 C 167.808594 79.308594 169.582031 79 171.363281 78.734375 C 173.140625 78.472656 174.925781 78.25 176.71875 78.074219 C 178.507812 77.898438 180.300781 77.765625 182.097656 77.679688 C 183.898438 77.589844 185.695312 77.546875 187.496094 77.546875 C 189.292969 77.546875 191.09375 77.589844 192.890625 77.679688 C 194.6875 77.765625 196.480469 77.898438 198.269531 78.074219 C 200.0625 78.25 201.847656 78.472656 203.628906 78.734375 C 205.40625 79 207.179688 79.308594 208.945312 79.660156 C 210.710938 80.007812 212.464844 80.402344 214.210938 80.839844 C 215.957031 81.277344 217.6875 81.757812 219.410156 82.28125 C 221.132812 82.800781 222.839844 83.367188 224.535156 83.972656 C 226.230469 84.578125 227.90625 85.226562 229.570312 85.914062 C 231.230469 86.605469 232.875 87.332031 234.503906 88.101562 C 236.128906 88.871094 237.738281 89.679688 239.324219 90.527344 C 240.910156 91.375 242.476562 92.261719 244.019531 93.1875 C 245.5625 94.113281 247.082031 95.074219 248.578125 96.074219 C 250.074219 97.074219 251.546875 98.109375 252.992188 99.183594 C 254.4375 100.253906 255.855469 101.363281 257.246094 102.503906 C 258.636719 103.644531 259.996094 104.820312 261.332031 106.027344 C 262.664062 107.234375 263.96875 108.476562 265.238281 109.75 C 266.511719 111.019531 267.753906 112.324219 268.960938 113.65625 C 270.167969 114.992188 271.34375 116.351562 272.484375 117.742188 C 273.628906 119.132812 274.734375 120.550781 275.804688 121.996094 C 276.878906 123.441406 277.914062 124.914062 278.914062 126.410156 C 279.914062 127.90625 280.875 129.425781 281.800781 130.96875 C 282.726562 132.511719 283.613281 134.078125 284.460938 135.664062 C 285.308594 137.25 286.117188 138.859375 286.886719 140.484375 C 287.65625 142.113281 288.386719 143.757812 289.074219 145.417969 C 289.761719 147.082031 290.410156 148.757812 291.015625 150.453125 C 291.621094 152.148438 292.1875 153.855469 292.707031 155.578125 C 293.230469 157.300781 293.710938 159.035156 294.148438 160.777344 C 294.585938 162.523438 294.980469 164.28125 295.332031 166.042969 C 295.679688 167.808594 295.988281 169.582031 296.253906 171.363281 C 296.515625 173.140625 296.738281 174.925781 296.914062 176.71875 C 297.089844 178.507812 297.222656 180.300781 297.308594 182.097656 C 297.398438 183.898438 297.441406 185.695312 297.441406 187.496094 Z M 297.441406 187.496094 "/><g clip-rule="nonzero" clip-path="url(#924d723790)"><path style=" stroke:none;fill-rule:nonzero;fill:#ffffff;fill-opacity:1;" d="M 129.1875 130.226562 C 129.1875 131.863281 128.082031 133.375 126.425781 133.804688 C 120.5 135.351562 114.460938 136.289062 108.402344 136.558594 L 118.480469 152.144531 C 119.585938 153.855469 119.117188 156.136719 117.394531 157.273438 C 115.679688 158.371094 113.394531 157.882812 112.289062 156.175781 L 98.542969 134.921875 C 97.796875 133.753906 97.753906 132.257812 98.425781 131.089844 C 99.097656 129.886719 100.390625 129.167969 101.761719 129.199219 C 109.410156 129.472656 117.082031 128.609375 124.554688 126.648438 C 126.53125 126.125 128.550781 127.3125 129.0625 129.292969 C 129.140625 129.597656 129.1875 129.921875 129.1875 130.226562 "/></g><path style=" stroke:none;fill-rule:nonzero;fill:#ffffff;fill-opacity:1;" d="M 191.273438 292.246094 C 191.273438 294.226562 189.703125 295.878906 187.710938 295.953125 C 185.675781 296.023438 183.960938 294.425781 183.890625 292.390625 C 182.605469 258.0625 176.488281 229.292969 165.171875 204.421875 C 151.933594 175.382812 131.0625 152.183594 106.410156 139.148438 C 104.582031 138.195312 103.917969 135.980469 104.867188 134.148438 C 105.820312 132.332031 108.054688 131.648438 109.859375 132.601562 C 135.945312 146.410156 157.972656 170.8125 171.882812 201.367188 C 183.613281 227.117188 189.957031 256.804688 191.265625 292.105469 C 191.265625 292.160156 191.273438 292.210938 191.273438 292.246094 "/><path style=" stroke:none;fill-rule:nonzero;fill:#ffffff;fill-opacity:1;" d="M 270.710938 135.871094 C 270.710938 137.203125 269.992188 138.480469 268.734375 139.148438 C 244.085938 152.183594 223.210938 175.382812 209.976562 204.421875 C 198.652344 229.308594 192.53125 258.082031 191.265625 292.390625 C 191.195312 294.425781 189.480469 296.023438 187.441406 295.953125 C 185.449219 295.878906 183.878906 294.226562 183.878906 292.246094 C 183.878906 292.210938 183.890625 292.160156 183.890625 292.105469 C 185.191406 256.824219 191.527344 227.132812 203.261719 201.367188 C 217.171875 170.8125 239.203125 146.410156 265.289062 132.601562 C 267.09375 131.648438 269.328125 132.332031 270.277344 134.148438 C 270.566406 134.707031 270.710938 135.28125 270.710938 135.871094 "/><g clip-rule="nonzero" clip-path="url(#d67848cd26)"><path style=" stroke:none;fill-rule:nonzero;fill:#ffffff;fill-opacity:1;" d="M 276.910156 132.347656 C 276.910156 133.03125 276.710938 133.714844 276.335938 134.328125 C 272.226562 140.835938 269.074219 147.902344 266.964844 155.3125 C 266.410156 157.289062 264.363281 158.425781 262.398438 157.867188 C 260.433594 157.289062 259.304688 155.132812 259.859375 153.296875 C 261.539062 147.402344 263.808594 141.734375 266.644531 136.339844 L 248.121094 137.152344 C 246.078125 137.222656 244.351562 135.640625 244.273438 133.609375 C 244.210938 131.664062 245.761719 129.832031 247.800781 129.742188 L 273.050781 128.644531 C 274.421875 128.589844 275.714844 129.292969 276.40625 130.496094 C 276.738281 131.074219 276.910156 131.703125 276.910156 132.347656 "/></g><g style="fill:#6366f1;fill-opacity:1;"><g transform="translate(90.064914, 361.784724)"><path style="stroke:none" d="M 13.625 0.4375 C 11.5 0.4375 9.601562 0.175781 7.9375 -0.34375 C 6.28125 -0.875 4.894531 -1.566406 3.78125 -2.421875 C 2.675781 -3.273438 1.828125 -4.210938 1.234375 -5.234375 L 4.578125 -9.3125 L 5.109375 -9.3125 C 6.035156 -7.9375 7.207031 -6.84375 8.625 -6.03125 C 10.050781 -5.21875 11.71875 -4.8125 13.625 -4.8125 C 15.25 -4.8125 16.472656 -5.15625 17.296875 -5.84375 C 18.128906 -6.53125 18.546875 -7.476562 18.546875 -8.6875 C 18.546875 -9.414062 18.410156 -10.023438 18.140625 -10.515625 C 17.878906 -11.003906 17.441406 -11.425781 16.828125 -11.78125 C 16.210938 -12.132812 15.378906 -12.4375 14.328125 -12.6875 L 10.375 -13.59375 C 7.601562 -14.21875 5.539062 -15.265625 4.1875 -16.734375 C 2.84375 -18.203125 2.171875 -20.101562 2.171875 -22.4375 C 2.171875 -24.175781 2.601562 -25.703125 3.46875 -27.015625 C 4.34375 -28.335938 5.609375 -29.363281 7.265625 -30.09375 C 8.929688 -30.820312 10.921875 -31.1875 13.234375 -31.1875 C 15.597656 -31.1875 17.625 -30.875 19.3125 -30.25 C 21.007812 -29.632812 22.4375 -28.679688 23.59375 -27.390625 L 20.59375 -23.265625 L 20.0625 -23.265625 C 19.195312 -24.171875 18.203125 -24.851562 17.078125 -25.3125 C 15.953125 -25.769531 14.671875 -26 13.234375 -26 C 11.566406 -26 10.296875 -25.703125 9.421875 -25.109375 C 8.554688 -24.523438 8.125 -23.710938 8.125 -22.671875 C 8.125 -21.703125 8.425781 -20.929688 9.03125 -20.359375 C 9.644531 -19.785156 10.703125 -19.335938 12.203125 -19.015625 L 16.234375 -18.171875 C 19.222656 -17.546875 21.390625 -16.476562 22.734375 -14.96875 C 24.078125 -13.457031 24.75 -11.488281 24.75 -9.0625 C 24.75 -7.144531 24.335938 -5.472656 23.515625 -4.046875 C 22.691406 -2.628906 21.441406 -1.523438 19.765625 -0.734375 C 18.097656 0.046875 16.050781 0.4375 13.625 0.4375 Z M 13.625 0.4375 "/></g></g><g style="fill:#6366f1;fill-opacity:1;"><g transform="translate(116.478523, 361.784724)"><path style="stroke:none" d="M 3.34375 9.40625 L 3.34375 -23.203125 L 9.171875 -23.203125 L 9.171875 -20.171875 L 9.609375 -20.09375 C 10.296875 -21.269531 11.210938 -22.15625 12.359375 -22.75 C 13.515625 -23.34375 14.863281 -23.640625 16.40625 -23.640625 C 18.269531 -23.640625 19.898438 -23.195312 21.296875 -22.3125 C 22.691406 -21.425781 23.773438 -20.082031 24.546875 -18.28125 C 25.328125 -16.488281 25.71875 -14.257812 25.71875 -11.59375 C 25.71875 -8.9375 25.304688 -6.710938 24.484375 -4.921875 C 23.671875 -3.128906 22.535156 -1.785156 21.078125 -0.890625 C 19.617188 -0.00390625 17.9375 0.4375 16.03125 0.4375 C 14.582031 0.4375 13.332031 0.195312 12.28125 -0.28125 C 11.226562 -0.769531 10.335938 -1.523438 9.609375 -2.546875 L 9.171875 -2.46875 L 9.171875 9.40625 Z M 14.40625 -4.5 C 16.144531 -4.5 17.460938 -5.066406 18.359375 -6.203125 C 19.253906 -7.335938 19.703125 -9.132812 19.703125 -11.59375 C 19.703125 -14.039062 19.253906 -15.835938 18.359375 -16.984375 C 17.460938 -18.128906 16.144531 -18.703125 14.40625 -18.703125 C 12.78125 -18.703125 11.488281 -18.113281 10.53125 -16.9375 C 9.582031 -15.757812 9.109375 -13.976562 9.109375 -11.59375 C 9.109375 -9.21875 9.582031 -7.441406 10.53125 -6.265625 C 11.488281 -5.085938 12.78125 -4.5 14.40625 -4.5 Z M 14.40625 -4.5 "/></g></g><g style="fill:#6366f1;fill-opacity:1;"><g transform="translate(144.259079, 361.784724)"><path style="stroke:none" d="M 9.640625 0.4375 C 7.546875 0.4375 5.945312 -0.125 4.84375 -1.25 C 3.75 -2.375 3.203125 -4.085938 3.203125 -6.390625 L 3.203125 -32.515625 L 9.03125 -32.515625 L 9.03125 -6.625 C 9.03125 -5.207031 9.617188 -4.5 10.796875 -4.5 C 11.128906 -4.5 11.484375 -4.554688 11.859375 -4.671875 L 12.15625 -4.578125 L 12.6875 -0.109375 C 12.363281 0.0546875 11.929688 0.1875 11.390625 0.28125 C 10.859375 0.382812 10.273438 0.4375 9.640625 0.4375 Z M 9.640625 0.4375 "/></g></g><g style="fill:#6366f1;fill-opacity:1;"><g transform="translate(157.592063, 361.784724)"><path style="stroke:none" d="M 6.25 -25.984375 C 5.195312 -25.984375 4.335938 -26.300781 3.671875 -26.9375 C 3.015625 -27.570312 2.6875 -28.394531 2.6875 -29.40625 C 2.6875 -30.40625 3.015625 -31.222656 3.671875 -31.859375 C 4.335938 -32.492188 5.195312 -32.8125 6.25 -32.8125 C 6.945312 -32.8125 7.566406 -32.664062 8.109375 -32.375 C 8.660156 -32.082031 9.085938 -31.675781 9.390625 -31.15625 C 9.691406 -30.644531 9.84375 -30.0625 9.84375 -29.40625 C 9.84375 -28.75 9.691406 -28.160156 9.390625 -27.640625 C 9.085938 -27.117188 8.660156 -26.710938 8.109375 -26.421875 C 7.566406 -26.128906 6.945312 -25.984375 6.25 -25.984375 Z M 3.34375 0 L 3.34375 -23.203125 L 9.171875 -23.203125 L 9.171875 0 Z M 3.34375 0 "/></g></g><g style="fill:#6366f1;fill-opacity:1;"><g transform="translate(170.08385, 361.784724)"><path style="stroke:none" d="M 16 -5.53125 L 17.515625 -1.21875 C 16.890625 -0.695312 16.097656 -0.289062 15.140625 0 C 14.191406 0.289062 13.113281 0.4375 11.90625 0.4375 C 9.394531 0.4375 7.488281 -0.242188 6.1875 -1.609375 C 4.882812 -2.972656 4.234375 -4.960938 4.234375 -7.578125 L 4.234375 -18.59375 L 0.6875 -18.59375 L 0.6875 -23.21875 L 4.234375 -23.21875 L 4.234375 -27.75 L 10.046875 -28.6875 L 10.046875 -23.21875 L 16.640625 -23.21875 L 16.640625 -18.59375 L 10.046875 -18.59375 L 10.046875 -8 C 10.046875 -6.84375 10.285156 -6 10.765625 -5.46875 C 11.242188 -4.945312 11.941406 -4.6875 12.859375 -4.6875 C 13.890625 -4.6875 14.789062 -4.96875 15.5625 -5.53125 Z M 16 -5.53125 "/></g></g><g style="fill:#6366f1;fill-opacity:1;"><g transform="translate(188.106512, 361.784724)"><path style="stroke:none" d="M 10.078125 -13.5 L 10.078125 -5.09375 L 24.75 -5.09375 L 24.75 0 L 4 0 L 4 -30.75 L 24.421875 -30.75 L 24.421875 -25.65625 L 10.078125 -25.65625 L 10.078125 -18.46875 L 22.609375 -18.46875 L 22.609375 -13.5 Z M 10.078125 -13.5 "/></g></g><g style="fill:#6366f1;fill-opacity:1;"><g transform="translate(214.541152, 361.784724)"><path style="stroke:none" d="M 9.046875 0.4375 C 7.554688 0.4375 6.265625 0.164062 5.171875 -0.375 C 4.078125 -0.925781 3.234375 -1.726562 2.640625 -2.78125 C 2.054688 -3.84375 1.765625 -5.117188 1.765625 -6.609375 C 1.765625 -7.984375 2.054688 -9.132812 2.640625 -10.0625 C 3.234375 -11 4.144531 -11.765625 5.375 -12.359375 C 6.613281 -12.953125 8.226562 -13.410156 10.21875 -13.734375 C 11.613281 -13.960938 12.671875 -14.207031 13.390625 -14.46875 C 14.109375 -14.738281 14.59375 -15.039062 14.84375 -15.375 C 15.101562 -15.707031 15.234375 -16.132812 15.234375 -16.65625 C 15.234375 -17.40625 14.972656 -17.972656 14.453125 -18.359375 C 13.929688 -18.753906 13.066406 -18.953125 11.859375 -18.953125 C 10.566406 -18.953125 9.335938 -18.664062 8.171875 -18.09375 C 7.015625 -17.519531 6.007812 -16.757812 5.15625 -15.8125 L 4.734375 -15.8125 L 2.296875 -19.5 C 3.472656 -20.800781 4.910156 -21.816406 6.609375 -22.546875 C 8.304688 -23.273438 10.15625 -23.640625 12.15625 -23.640625 C 15.226562 -23.640625 17.453125 -22.988281 18.828125 -21.6875 C 20.203125 -20.382812 20.890625 -18.535156 20.890625 -16.140625 L 20.890625 -6.0625 C 20.890625 -5.019531 21.34375 -4.5 22.25 -4.5 C 22.601562 -4.5 22.945312 -4.5625 23.28125 -4.6875 L 23.578125 -4.609375 L 24 -0.546875 C 23.675781 -0.335938 23.226562 -0.164062 22.65625 -0.03125 C 22.082031 0.101562 21.453125 0.171875 20.765625 0.171875 C 19.367188 0.171875 18.28125 -0.09375 17.5 -0.625 C 16.726562 -1.164062 16.175781 -2.003906 15.84375 -3.140625 L 15.390625 -3.171875 C 14.253906 -0.765625 12.140625 0.4375 9.046875 0.4375 Z M 10.890625 -3.90625 C 12.242188 -3.90625 13.320312 -4.359375 14.125 -5.265625 C 14.925781 -6.171875 15.328125 -7.429688 15.328125 -9.046875 L 15.328125 -11.40625 L 14.9375 -11.484375 C 14.582031 -11.203125 14.117188 -10.96875 13.546875 -10.78125 C 12.984375 -10.59375 12.171875 -10.40625 11.109375 -10.21875 C 9.847656 -10.007812 8.9375 -9.648438 8.375 -9.140625 C 7.820312 -8.628906 7.546875 -7.90625 7.546875 -6.96875 C 7.546875 -5.96875 7.835938 -5.207031 8.421875 -4.6875 C 9.015625 -4.164062 9.835938 -3.90625 10.890625 -3.90625 Z M 10.890625 -3.90625 "/></g></g><g style="fill:#6366f1;fill-opacity:1;"><g transform="translate(238.998977, 361.784724)"><path style="stroke:none" d="M 10.859375 0.4375 C 9.273438 0.4375 7.820312 0.253906 6.5 -0.109375 C 5.175781 -0.484375 4.046875 -0.992188 3.109375 -1.640625 C 2.179688 -2.296875 1.492188 -3.046875 1.046875 -3.890625 L 4.296875 -7.390625 L 4.734375 -7.390625 C 5.503906 -6.347656 6.414062 -5.566406 7.46875 -5.046875 C 8.519531 -4.523438 9.660156 -4.265625 10.890625 -4.265625 C 12.023438 -4.265625 12.878906 -4.46875 13.453125 -4.875 C 14.035156 -5.28125 14.328125 -5.863281 14.328125 -6.625 C 14.328125 -7.21875 14.117188 -7.710938 13.703125 -8.109375 C 13.285156 -8.503906 12.613281 -8.816406 11.6875 -9.046875 L 8.625 -9.78125 C 6.320312 -10.320312 4.640625 -11.15625 3.578125 -12.28125 C 2.523438 -13.414062 2 -14.851562 2 -16.59375 C 2 -18.039062 2.363281 -19.296875 3.09375 -20.359375 C 3.832031 -21.421875 4.867188 -22.234375 6.203125 -22.796875 C 7.546875 -23.359375 9.109375 -23.640625 10.890625 -23.640625 C 12.984375 -23.640625 14.71875 -23.335938 16.09375 -22.734375 C 17.46875 -22.128906 18.539062 -21.320312 19.3125 -20.3125 L 16.203125 -16.953125 L 15.78125 -16.953125 C 15.132812 -17.679688 14.40625 -18.210938 13.59375 -18.546875 C 12.789062 -18.890625 11.890625 -19.0625 10.890625 -19.0625 C 8.597656 -19.0625 7.453125 -18.34375 7.453125 -16.90625 C 7.453125 -16.300781 7.664062 -15.8125 8.09375 -15.4375 C 8.519531 -15.0625 9.269531 -14.753906 10.34375 -14.515625 L 13.203125 -13.875 C 15.566406 -13.375 17.289062 -12.566406 18.375 -11.453125 C 19.457031 -10.335938 20 -8.84375 20 -6.96875 C 20 -5.488281 19.632812 -4.1875 18.90625 -3.0625 C 18.175781 -1.945312 17.125 -1.082031 15.75 -0.46875 C 14.375 0.132812 12.742188 0.4375 10.859375 0.4375 Z M 10.859375 0.4375 "/></g></g><g style="fill:#6366f1;fill-opacity:1;"><g transform="translate(260.028907, 361.784724)"><path style="stroke:none" d="M 5.125 9.84375 C 4.132812 9.84375 3.234375 9.765625 2.421875 9.609375 C 1.617188 9.453125 0.96875 9.25 0.46875 9 L 1.390625 4.296875 L 1.765625 4.171875 C 2.117188 4.347656 2.550781 4.492188 3.0625 4.609375 C 3.582031 4.722656 4.117188 4.78125 4.671875 4.78125 C 5.609375 4.78125 6.390625 4.65625 7.015625 4.40625 C 7.640625 4.15625 8.164062 3.742188 8.59375 3.171875 C 9.03125 2.609375 9.421875 1.828125 9.765625 0.828125 L 0.5 -23.203125 L 6.609375 -23.203125 L 12.375 -7.0625 L 12.875 -7.0625 L 18.484375 -23.203125 L 24.421875 -23.203125 L 15.109375 1.453125 C 14.359375 3.441406 13.535156 5.039062 12.640625 6.25 C 11.753906 7.46875 10.703125 8.367188 9.484375 8.953125 C 8.273438 9.546875 6.820312 9.84375 5.125 9.84375 Z M 5.125 9.84375 "/></g></g></g></svg>