<svg xmlns="http://www.w3.org/2000/svg" viewBox="0 0 254.0 96" width="254" height="96"><rect width="96" height="96" rx="21.5" fill="#595AE4"/><path fill="#FFFFFF" transform="translate(21.31 64.90) scale(0.02649 -0.02649)" d="M1864.4210815429688 1153.53173828125H1616.0V0H1864.4210815429688ZM1539.6346435546875 1089.1140747070312H2058.403076171875L2044.1029052734375 1275.9005126953125H1525.33447265625ZM677.600341796875 1275.9005126953125 691.9005126953125 1089.1140747070312H1963.5694580078125L1949.6526489257812 1275.9005126953125ZM1268.3198852539062 1126.2478637695312H1004.9656982421875Q1052.4322509765625 1094.0145874023438 1073.132080078125 1046.8066101074219Q1093.8319091796875 999.5986328125 1093.8319091796875 933.0325927734375V923.4159545898438Q1093.8319091796875 866.4828491210938 1072.4403991699219 829.0913391113281Q1051.0488891601562 791.6998291015625 1001.1908264160156 773.466552734375Q951.332763671875 755.2332763671875 866.6998291015625 755.2332763671875H818.2332763671875L896.6346435546875 581.3310546875L987.9022216796875 583.7144165039062Q1178.336181640625 587.4811401367188 1264.4862670898438 663.5896301269531Q1350.6363525390625 739.6981201171875 1350.6363525390625 890.2315673828125V903.6149291992188Q1350.6363525390625 978.0814819335938 1331.403076171875 1032.89794921875Q1312.1697998046875 1087.7144165039062 1268.3198852539062 1126.2478637695312ZM808.3164672851562 599.332763671875V587.6492309570312Q808.3164672851562 382.44854736328125 925.5831909179688 271.9566955566406Q1042.8499145507812 161.46484375 1252.9168090820312 161.46484375Q1411.2169799804688 161.46484375 1492.6419372558594 215.10678100585938Q1574.06689453125 268.74871826171875 1604.0 358.28216552734375H1629.3670654296875L1621.7667236328125 544.0Q1600.600341796875 462.65093994140625 1527.8426208496094 416.75128173828125Q1455.0848999023438 370.85162353515625 1317.7521362304688 370.85162353515625Q1224.269287109375 370.85162353515625 1164.9446716308594 397.367919921875Q1105.6200561523438 423.88421630859375 1077.3786315917969 471.68353271484375Q1049.13720703125 519.4828491210938 1049.13720703125 582.2152709960938V698.3490600585938L818.2332763671875 755.2332763671875Q813.0831909179688 709.0162963867188 810.6998291015625 672.1745300292969Q808.3164672851562 635.332763671875 808.3164672851562 599.332763671875ZM-29.15008544921875 1089.1140747070312H918.931396484375L904.39794921875 1275.9005126953125H-43.45025634765625ZM91.198974609375 527.2984619140625Q91.198974609375 330.931396484375 199.19082641601562 233.01458740234375Q307.18267822265625 135.0977783203125 510.94940185546875 135.0977783203125Q607.5497436523438 135.0977783203125 677.5081481933594 158.24786376953125Q747.466552734375 181.39794921875 793.3915100097656 226.6981201171875Q839.3164672851562 271.998291015625 862.6998291015625 337.68182373046875H885.1663818359375L832.399658203125 492.399658203125Q812.466552734375 420.75042724609375 750.0171508789062 382.4258117675781Q687.5677490234375 344.1011962890625 578.3850708007812 344.1011962890625Q458.5025634765625 344.1011962890625 403.1363525390625 389.5921936035156Q347.7701416015625 435.08319091796875 347.7701416015625 534.5986328125V544.2152709960938Q347.7701416015625 638.6475219726562 401.9446716308594 683.9052429199219Q456.11920166015625 729.1629638671875 566.3850708007812 729.1629638671875Q610.867919921875 729.1629638671875 650.1174926757812 725.0047302246094Q689.3670654296875 720.8464965820312 725.0 712.1466674804688L707.93310546875 909.6998291015625Q664.399658203125 921.3164672851562 614.899658203125 927.43310546875Q565.399658203125 933.5497436523438 509.0994873046875 933.5497436523438Q303.0325927734375 933.5497436523438 197.11578369140625 836.0578918457031Q91.198974609375 738.5660400390625 91.198974609375 544.3653564453125Z"/><path fill="currentColor" transform="translate(116.23 60.74) scale(0.03274 -0.03274)" d="M527.33447265625 169.5694580078125 737.998291015625 980.6835327148438H1001.9528198242188L721.7212524414062 0.0H308.41424560546875L27.0325927734375 980.6835327148438H292.52056884765625L503.95111083984375 169.5694580078125ZM1667.1029052734375 212.48626708984375 1530.1337890625 153.3018798828125 1775.2315673828125 980.6835327148438H2037.9528198242188L1617.1046142578125 -344.0H1359.6835327148438L1513.9168090820312 137.61834716796875L1632.5857543945312 41.7667236328125H1346.797607421875L1062.0325927734375 980.6835327148438H1326.7538452148438L1530.1174926757812 212.48626708984375ZM2711.2152709960938 0.0 2719.9819946289062 239.667236328125 2712.9819946289062 261.61663818359375V568.8499145507812L2712.4485473632812 612.8662109375Q2712.4485473632812 708.998291015625 2659.9322509765625 754.1393737792969Q2607.4159545898438 799.2804565429688 2488.0831909179688 799.2804565429688Q2387.3833618164062 799.2804565429688 2298.808319091797 772.5806274414062Q2210.2332763671875 745.8807983398438 2135.0162963867188 710.9476928710938L2157.2332763671875 915.20068359375Q2201.06689453125 937.8173217773438 2257.7504272460938 958.4755554199219Q2314.4339599609375 979.1337890625 2383.9674072265625 991.9837036132812Q2453.5008544921875 1004.8336181640625 2534.5008544921875 1004.8336181640625Q2655.46826171875 1004.8336181640625 2738.0270080566406 976.4168090820312Q2820.5857543945312 948.0 2870.269287109375 895.1247863769531Q2919.9528198242188 842.2495727539062 2942.2195434570312 768.79931640625Q2964.4862670898438 695.3490600585938 2964.4862670898438 605.8988037109375V0.0ZM2390.1826782226562 -22.7667236328125Q2244.0325927734375 -22.7667236328125 2167.607635498047 50.2667236328125Q2091.1826782226562 123.3001708984375 2091.1826782226562 257.98370361328125V286.06689453125Q2091.1826782226562 429.1337890625 2179.2161254882812 497.5921936035156Q2267.2495727539062 566.0505981445312 2458.2332763671875 591.667236328125L2735.7487182617188 629.8336181640625L2750.5823364257812 464.8319091796875L2495.0343017578125 428.28216552734375Q2410.5188598632812 416.58233642578125 2375.3777770996094 387.832763671875Q2340.2366943359375 359.08319091796875 2340.2366943359375 303.20068359375V293.0343017578125Q2340.2366943359375 238.3018798828125 2374.836181640625 207.6689453125Q2409.4356689453125 177.0360107421875 2482.934814453125 177.0360107421875Q2548.667236328125 177.0360107421875 2596.0415954589844 197.86062622070312Q2643.4159545898438 218.68524169921875 2673.6239318847656 253.55960083007812Q2703.8319091796875 288.4339599609375 2716.8319091796875 330.6998291015625L2752.6492309570312 203.91680908203125H2708.5986328125Q2692.9819946289062 141.2332763671875 2657.7071228027344 89.84991455078125Q2622.4322509765625 38.466552734375 2558.040740966797 7.84991455078125Q2493.6492309570312 -22.7667236328125 2390.1826782226562 -22.7667236328125ZM3661.1029052734375 212.48626708984375 3524.1337890625 153.3018798828125 3769.2315673828125 980.6835327148438H4031.9528198242188L3611.1046142578125 -344.0H3353.6835327148438L3507.9168090820312 137.61834716796875L3626.5857543945312 41.7667236328125H3340.797607421875L3056.0325927734375 980.6835327148438H3320.7538452148438L3524.1174926757812 212.48626708984375Z"/></svg>